<?xml version="1.0" encoding="UTF-8" standalone="no"?>
<svg
   xmlns:dc="http://purl.org/dc/elements/1.1/"
   xmlns:cc="http://creativecommons.org/ns#"
   xmlns:rdf="http://www.w3.org/1999/02/22-rdf-syntax-ns#"
   xmlns:svg="http://www.w3.org/2000/svg"
   xmlns="http://www.w3.org/2000/svg"
   xmlns:sodipodi="http://sodipodi.sourceforge.net/DTD/sodipodi-0.dtd"
   xmlns:inkscape="http://www.inkscape.org/namespaces/inkscape"
   version="1.1"
   x="0px"
   y="0px"
   width="36.447px"
   height="36.447px"
   viewBox="0 0 36.447 36.447"
   style="enable-background:new 0 0 36.447 36.447;"
   xml:space="preserve"
   id="svg5767"
   sodipodi:docname="calendar.svg"
   inkscape:version="0.92.3 (2405546, 2018-03-11)"><metadata
   id="metadata5773"><rdf:RDF><cc:Work
       rdf:about=""><dc:format>image/svg+xml</dc:format><dc:type
         rdf:resource="http://purl.org/dc/dcmitype/StillImage" /></cc:Work></rdf:RDF></metadata><defs
   id="defs5771" /><sodipodi:namedview
   pagecolor="#ffffff"
   bordercolor="#666666"
   borderopacity="1"
   objecttolerance="10"
   gridtolerance="10"
   guidetolerance="10"
   inkscape:pageopacity="0"
   inkscape:pageshadow="2"
   inkscape:window-width="3840"
   inkscape:window-height="2041"
   id="namedview5769"
   showgrid="false"
   inkscape:zoom="48.399047"
   inkscape:cx="18.223499"
   inkscape:cy="18.223499"
   inkscape:window-x="0"
   inkscape:window-y="0"
   inkscape:window-maximized="1"
   inkscape:current-layer="svg5767" />
<g
   id="g5765">
  <g
   id="g5763">
    <path
   d="M30.224,3.948h-1.098V2.75c0-1.517-1.197-2.75-2.67-2.75c-1.474,0-2.67,1.233-2.67,2.75v1.197h-2.74V2.75       c0-1.517-1.197-2.75-2.67-2.75c-1.473,0-2.67,1.233-2.67,2.75v1.197h-2.74V2.75c0-1.517-1.197-2.75-2.67-2.75       c-1.473,0-2.67,1.233-2.67,2.75v1.197H6.224c-2.343,0-4.25,1.907-4.25,4.25v24c0,2.343,1.907,4.25,4.25,4.25h24       c2.344,0,4.25-1.907,4.25-4.25v-24C34.474,5.855,32.567,3.948,30.224,3.948z M25.286,2.75c0-0.689,0.525-1.25,1.17-1.25       c0.646,0,1.17,0.561,1.17,1.25v4.896c0,0.689-0.524,1.25-1.17,1.25c-0.645,0-1.17-0.561-1.17-1.25V2.75z M17.206,2.75       c0-0.689,0.525-1.25,1.17-1.25s1.17,0.561,1.17,1.25v4.896c0,0.689-0.525,1.25-1.17,1.25s-1.17-0.561-1.17-1.25V2.75z M9.125,2.75       c0-0.689,0.525-1.25,1.17-1.25s1.17,0.561,1.17,1.25v4.896c0,0.689-0.525,1.25-1.17,1.25s-1.17-0.561-1.17-1.25V2.75z        M31.974,32.198c0,0.965-0.785,1.75-1.75,1.75h-24c-0.965,0-1.75-0.785-1.75-1.75v-22h27.5V32.198z"
   id="path5737" />
    <rect
   x="6.724"
   y="14.626"
   width="4.595"
   height="4.089"
   id="rect5739" />
    <rect
   x="12.857"
   y="14.626"
   width="4.596"
   height="4.089"
   id="rect5741" />
    <rect
   x="18.995"
   y="14.626"
   width="4.595"
   height="4.089"
   id="rect5743" />
    <rect
   x="25.128"
   y="14.626"
   width="4.596"
   height="4.089"
   id="rect5745" />
    <rect
   x="6.724"
   y="20.084"
   width="4.595"
   height="4.086"
   id="rect5747" />
    <rect
   x="12.857"
   y="20.084"
   width="4.596"
   height="4.086"
   id="rect5749" />
    <rect
   x="18.995"
   y="20.084"
   width="4.595"
   height="4.086"
   id="rect5751" />
    <rect
   x="25.128"
   y="20.084"
   width="4.596"
   height="4.086"
   id="rect5753" />
    <rect
   x="6.724"
   y="25.54"
   width="4.595"
   height="4.086"
   id="rect5755" />
    <rect
   x="12.857"
   y="25.54"
   width="4.596"
   height="4.086"
   id="rect5757" />
    <rect
   x="18.995"
   y="25.54"
   width="4.595"
   height="4.086"
   id="rect5759" />
    <rect
   x="25.128"
   y="25.54"
   width="4.596"
   height="4.086"
   id="rect5761" />
  </g>
</g>
<path
   style="fill:#666666;fill-opacity:1;stroke-width:0.02066156"
   d="m 6.7370472,18.70147 c -0.00758,-0.0076 -0.013774,-0.9234 -0.013774,-2.035164 v -2.02139 H 9.0167065 11.31014 v 2.035164 2.035165 H 9.0304809 c -1.2538126,0 -2.2858577,-0.0062 -2.2934337,-0.01377 z"
   id="path5775"
   inkscape:connector-curvature="0" /><path
   style="fill:#666666;fill-opacity:1;stroke-width:0.02066156"
   d="m 12.859757,16.68008 v -2.035164 h 2.293434 2.293433 v 2.035164 2.035165 h -2.293433 -2.293434 z"
   id="path5777"
   inkscape:connector-curvature="0" /><path
   style="fill:#666666;fill-opacity:1;stroke-width:0.02066156"
   d="m 18.996242,16.68008 v -2.035164 h 2.293433 2.293434 v 2.035164 2.035165 h -2.293434 -2.293433 z"
   id="path5779"
   inkscape:connector-curvature="0" /><path
   style="fill:#666666;fill-opacity:1;stroke-width:0.02066156"
   d="m 25.132726,16.68008 v -2.035164 h 2.293434 2.293433 v 2.035164 2.035165 H 27.42616 25.132726 Z"
   id="path5781"
   inkscape:connector-curvature="0" /><path
   style="fill:#666666;fill-opacity:1;stroke-width:0.02066156"
   d="M 5.862278,36.420281 C 5.0736241,36.349935 4.3185518,36.059536 3.6701457,35.577192 3.4468304,35.411071 3.0331798,35.000507 2.8658722,34.77892 2.4038104,34.166956 2.1194623,33.482325 2.0225987,32.748554 1.99557,32.543804 1.9917748,30.998255 1.9917748,20.196111 c 0,-8.488834 0.00675,-12.3733756 0.021722,-12.494022 C 2.1677322,6.4589511 2.8389905,5.3694045 3.8858557,4.6629871 4.2306918,4.430294 4.7392884,4.2021503 5.1426632,4.0992144 5.6056533,3.9810654 5.6335799,3.9786734 6.6644314,3.9688674 l 0.9639058,-0.00917 0.00967,-0.7887101 C 7.6464904,2.4793085 7.6527906,2.3594014 7.68922,2.1963242 7.8148532,1.6339218 8.061475,1.1768855 8.447768,0.79059251 8.9587425,0.27961805 9.587301,0.0168597 10.299248,0.01661234 c 1.13508,-3.9439e-4 2.138594,0.73783068 2.509134,1.84581826 0.125445,0.375107 0.137276,0.4810746 0.148587,1.3308141 l 0.01024,0.7696432 h 1.369865 1.369865 l 0.01004,-0.779974 c 0.01092,-0.8482444 0.02489,-0.9734884 0.149442,-1.3393349 0.07375,-0.2166263 0.253668,-0.562624 0.386006,-0.7423176 0.405965,-0.55123472 1.045576,-0.94819832 1.698399,-1.05408058 1.26348,-0.2049258 2.490023,0.53902359 2.923335,1.77312368 0.138154,0.3934707 0.151191,0.5031733 0.161933,1.3626094 l 0.0098,0.779974 h 1.36973 1.369729 l 0.01012,-0.779974 c 0.01115,-0.8597857 0.02457,-0.9725398 0.162181,-1.3626094 0.330657,-0.93727525 1.113191,-1.60672848 2.071444,-1.77210698 0.231979,-0.0400361 0.608241,-0.04048531 0.851587,-0.0010167 1.032733,0.16750056 1.896756,0.98450848 2.15311,2.03594908 0.06874,0.2819586 0.08666,0.5358948 0.08666,1.2281045 v 0.6516535 l 0.686997,1.653e-4 c 0.377848,1.033e-4 0.770676,0.00952 0.872951,0.020948 1.428485,0.1596211 2.680251,1.028258 3.325997,2.3080076 0.209645,0.4154774 0.341664,0.8292682 0.417732,1.3092969 0.03571,0.2253162 0.03734,0.7759878 0.03734,12.5912363 0,11.818973 -0.0016,12.365936 -0.03737,12.593223 -0.11616,0.738502 -0.386818,1.38871 -0.81601,1.96031 -0.14828,0.197479 -0.481578,0.54494 -0.687404,0.716613 -0.652782,0.544469 -1.504013,0.889997 -2.362084,0.958808 -0.323229,0.02592 -24.4053389,0.02473 -24.696274,-0.0012 z m 24.797417,-2.513915 c 0.635929,-0.179981 1.115119,-0.667121 1.275062,-1.29622 l 0.04728,-0.185954 V 21.308271 10.192349 l -13.755549,-0.0052 -13.7555494,-0.0052 0.00528,11.172757 0.00528,11.172755 0.046933,0.151139 c 0.2195849,0.707132 0.7836499,1.177755 1.5233456,1.27099 0.034092,0.0043 5.5476298,0.0068 12.2523068,0.0057 l 12.190323,-0.0021 z M 10.565387,8.8705189 c 0.327145,-0.087061 0.611409,-0.3221148 0.762724,-0.6306872 0.156074,-0.3182774 0.14891,-0.1622818 0.142614,-3.1052719 l -0.0056,-2.6283121 -0.0566,-0.1669126 C 11.115711,1.4758677 10.110579,1.2122446 9.4910978,1.8364437 9.3317742,1.9969806 9.218972,2.1982526 9.1607589,2.4258635 9.121255,2.5803223 9.1200252,2.6645039 9.120373,5.1903906 c 3.987e-4,2.8887555 -0.00545,2.7585822 0.1369636,3.0494411 0.0907,0.1852424 0.326873,0.4322895 0.5031862,0.5263535 0.2395072,0.1277785 0.5604392,0.1693806 0.8048642,0.1043337 z m 8.086957,-0.00225 C 19.030789,8.7706939 19.336301,8.4782368 19.48055,8.0754508 L 19.54377,7.8989149 V 5.2025818 2.5062477 L 19.49794,2.3616167 C 19.332713,1.8401189 18.887402,1.4967074 18.376395,1.4967074 c -0.553506,0 -1.025889,0.3995899 -1.146735,0.9700263 -0.04289,0.202473 -0.0448,5.2599213 -0.0021,5.4528437 0.104144,0.470038 0.434413,0.8298033 0.872092,0.949977 0.139975,0.038433 0.400954,0.037826 0.552647,-0.00129 z m 8.078672,0 c 0.309343,-0.079758 0.619965,-0.336381 0.763903,-0.6311057 0.143214,-0.2932361 0.13714,-0.1588295 0.13714,-3.0345824 0,-2.8926355 0.007,-2.7453264 -0.144826,-3.0533176 C 27.34102,1.8526331 27.072746,1.6270475 26.754659,1.5332598 26.591819,1.4852465 26.318818,1.485159 26.155474,1.5330676 25.774088,1.6449281 25.460408,1.9611224 25.333513,2.3616167 l -0.04583,0.144631 v 2.6963341 2.6963341 l 0.05514,0.1549617 c 0.08186,0.2300233 0.153513,0.34537 0.315531,0.5079211 0.151841,0.1523404 0.323082,0.2536869 0.520006,0.3077557 0.139974,0.038433 0.400954,0.037826 0.552647,-0.00129 z"
   id="path5783"
   inkscape:connector-curvature="0" /><path
   style="fill:#666666;fill-opacity:1;stroke-width:0.02066156"
   d="M 6.7232729,22.134733 V 20.099569 H 9.0167065 11.31014 v 2.035164 2.035164 H 9.0167065 6.7232729 Z"
   id="path5785"
   inkscape:connector-curvature="0" /><path
   style="fill:#666666;fill-opacity:1;stroke-width:0.02066156"
   d="M 6.7232729,27.589386 V 25.554222 H 9.0167065 11.31014 v 2.035164 2.035164 H 9.0167065 6.7232729 Z"
   id="path5787"
   inkscape:connector-curvature="0" /><path
   style="fill:#666666;fill-opacity:1;stroke-width:0.02066156"
   d="m 25.132726,27.589386 v -2.035164 h 2.293434 2.293433 v 2.035164 2.035164 H 27.42616 25.132726 Z"
   id="path5789"
   inkscape:connector-curvature="0" /><path
   style="fill:#666666;fill-opacity:1;stroke-width:0.02066156"
   d="m 25.132726,22.134733 v -2.035164 h 2.293434 2.293433 v 2.035164 2.035164 H 27.42616 25.132726 Z"
   id="path5791"
   inkscape:connector-curvature="0" /><path
   style="fill:#666666;fill-opacity:1;stroke-width:0.02066156"
   d="m 18.996242,22.134733 v -2.035164 h 2.293433 2.293434 v 2.035164 2.035164 h -2.293434 -2.293433 z"
   id="path5793"
   inkscape:connector-curvature="0" /><path
   style="fill:#666666;fill-opacity:1;stroke-width:0.02066156"
   d="m 18.996242,27.589386 v -2.035164 h 2.293433 2.293434 v 2.035164 2.035164 h -2.293434 -2.293433 z"
   id="path5795"
   inkscape:connector-curvature="0" /><path
   style="fill:#666666;fill-opacity:1;stroke-width:0.02066156"
   d="m 12.859757,27.589386 v -2.035164 h 2.293434 2.293433 v 2.035164 2.035164 h -2.293433 -2.293434 z"
   id="path5797"
   inkscape:connector-curvature="0" /><path
   style="fill:#666666;fill-opacity:1;stroke-width:0.02066156"
   d="m 12.859757,22.134733 v -2.035164 h 2.293434 2.293433 v 2.035164 2.035164 h -2.293433 -2.293434 z"
   id="path5799"
   inkscape:connector-curvature="0" /></svg>