<?xml version="1.0" encoding="UTF-8" standalone="no"?>
<svg
   xmlns:dc="http://purl.org/dc/elements/1.1/"
   xmlns:cc="http://creativecommons.org/ns#"
   xmlns:rdf="http://www.w3.org/1999/02/22-rdf-syntax-ns#"
   xmlns:svg="http://www.w3.org/2000/svg"
   xmlns="http://www.w3.org/2000/svg"
   xmlns:sodipodi="http://sodipodi.sourceforge.net/DTD/sodipodi-0.dtd"
   xmlns:inkscape="http://www.inkscape.org/namespaces/inkscape"
   width="14"
   height="16"
   viewBox="0 0 14 16"
   version="1.1"
   id="svg5643"
   sodipodi:docname="email.svg"
   inkscape:version="0.92.3 (2405546, 2018-03-11)">
  <metadata
     id="metadata5649">
    <rdf:RDF>
      <cc:Work
         rdf:about="">
        <dc:format>image/svg+xml</dc:format>
        <dc:type
           rdf:resource="http://purl.org/dc/dcmitype/StillImage" />
      </cc:Work>
    </rdf:RDF>
  </metadata>
  <defs
     id="defs5647" />
  <sodipodi:namedview
     pagecolor="#ffffff"
     bordercolor="#666666"
     borderopacity="1"
     objecttolerance="10"
     gridtolerance="10"
     guidetolerance="10"
     inkscape:pageopacity="0"
     inkscape:pageshadow="2"
     inkscape:window-width="3840"
     inkscape:window-height="2041"
     id="namedview5645"
     showgrid="false"
     inkscape:zoom="110.25"
     inkscape:cx="7"
     inkscape:cy="8"
     inkscape:window-x="0"
     inkscape:window-y="0"
     inkscape:window-maximized="1"
     inkscape:current-layer="svg5643" />
  <title
     id="title5639">mail</title>
  <path
     d="M0 4v8c0 .55.45 1 1 1h12c.55 0 1-.45 1-1V4c0-.55-.45-1-1-1H1c-.55 0-1 .45-1 1zm13 0L7 9 1 4h12zM1 5.5l4 3-4 3v-6zM2 12l3.5-3L7 10.5 8.5 9l3.5 3H2zm11-.5l-4-3 4-3v6z"
     fill="#000"
     fill-rule="evenodd"
     id="path5641" />
  <path
     style="fill:#666666;fill-opacity:1;stroke-width:0.00907029"
     d="M 0.85927209,12.985907 C 0.71220011,12.964384 0.52377208,12.88543 0.40602981,12.795993 0.18338737,12.626873 0.04167608,12.378594 0.0110566,12.103996 c -0.01362957,-0.122231 -0.01362957,-8.0893896 0,-8.2116207 C 0.0363171,3.6658372 0.13187173,3.4679586 0.29556831,3.3031964 0.47147099,3.1261485 0.67469667,3.0314046 0.92650685,3.0090524 c 0.0700924,-0.00622 2.08829825,-0.00836 6.14968365,-0.00651 l 6.0453515,0.00275 0.08163,0.019277 c 0.208882,0.049326 0.366241,0.1383493 0.513154,0.2903087 0.130886,0.1353804 0.209195,0.280673 0.260119,0.4826152 0.01403,0.055636 0.01539,0.3642806 0.01822,4.1462785 0.0023,3.0462592 3.99e-4,4.1080822 -0.0074,4.1722752 -0.05002,0.41182 -0.336555,0.736635 -0.750817,0.851108 l -0.08771,0.02424 -6.117914,0.0012 c -3.4056218,6.63e-4 -6.14170018,-0.0023 -6.17156691,-0.0067 z M 11.999849,11.998733 C 11.996649,11.989711 8.5079982,8.9965668 8.5002062,8.9961576 8.4977005,8.996026 8.1589341,9.3326532 7.7473922,9.7442178 L 6.999134,10.492517 6.2497425,9.7431666 5.500351,8.993816 3.7491557,10.493733 c -0.9631573,0.824955 -1.7514507,1.502979 -1.7517628,1.506721 -3.12e-4,0.0037 2.250793,0.0068 5.0024559,0.0068 3.1175162,0 5.0018832,-0.0032 5.0000002,-0.0085 z M 3.0042501,10.002255 C 4.1020741,9.1788688 4.9990031,8.5015401 4.9974258,8.4970799 4.9958484,8.4926196 4.1088435,7.8248116 3.0263039,7.0130622 1.9437642,6.2013128 1.0447846,5.5271366 1.0285714,5.5148929 L 0.999093,5.4926319 V 8.495976 c 0,1.651839 0.002051,3.003344 0.004557,3.003344 0.00251,0 0.9027764,-0.67368 2.0006001,-1.497065 z M 13.008163,8.4962963 c 0,-1.6948603 -0.0034,-3.0017064 -0.0079,-3 -0.01475,0.00566 -4.0003991,2.9961938 -4.0007975,3.0018969 -5.051e-4,0.00723 3.9909755,3.0011268 4.0011205,3.0011268 0.0042,0 0.0076,-1.351361 0.0076,-3.0030237 z M 10.010431,6.4974122 13.003628,4.0027211 10.004374,4.00044 c -1.6495901,-0.00125 -4.3514279,-0.00125 -6.0040841,0 L 0.99546023,4.00272 3.9964216,6.5035161 c 1.6855167,1.4045945 3.005312,2.49812 3.0108866,2.4946911 0.00546,-0.00336 1.3568641,-1.1287159 3.0031228,-2.5007961 z"
     id="path5651"
     inkscape:connector-curvature="0" />
</svg>
