<?xml version="1.0" encoding="UTF-8" standalone="no"?>
<svg
   xmlns:dc="http://purl.org/dc/elements/1.1/"
   xmlns:cc="http://creativecommons.org/ns#"
   xmlns:rdf="http://www.w3.org/1999/02/22-rdf-syntax-ns#"
   xmlns:svg="http://www.w3.org/2000/svg"
   xmlns="http://www.w3.org/2000/svg"
   xmlns:sodipodi="http://sodipodi.sourceforge.net/DTD/sodipodi-0.dtd"
   xmlns:inkscape="http://www.inkscape.org/namespaces/inkscape"
   viewBox="0 0 16 16"
   fill-rule="evenodd"
   clip-rule="evenodd"
   stroke-linejoin="round"
   stroke-miterlimit="1.414"
   version="1.1"
   id="svg5571"
   sodipodi:docname="facebook.svg"
   inkscape:version="0.92.3 (2405546, 2018-03-11)">
  <metadata
     id="metadata5577">
    <rdf:RDF>
      <cc:Work
         rdf:about="">
        <dc:format>image/svg+xml</dc:format>
        <dc:type
           rdf:resource="http://purl.org/dc/dcmitype/StillImage" />
      </cc:Work>
    </rdf:RDF>
  </metadata>
  <defs
     id="defs5575" />
  <sodipodi:namedview
     pagecolor="#ffffff"
     bordercolor="#666666"
     borderopacity="1"
     objecttolerance="10"
     gridtolerance="10"
     guidetolerance="10"
     inkscape:pageopacity="0"
     inkscape:pageshadow="2"
     inkscape:window-width="3840"
     inkscape:window-height="2041"
     id="namedview5573"
     showgrid="false"
     inkscape:zoom="110.25"
     inkscape:cx="8"
     inkscape:cy="8"
     inkscape:window-x="0"
     inkscape:window-y="0"
     inkscape:window-maximized="1"
     inkscape:current-layer="svg5571" />
  <path
     d="M15.117 0H.883C.395 0 0 .395 0 .883v14.234c0 .488.395.883.883.883h7.663V9.804H6.46V7.39h2.086V5.607c0-2.066 1.262-3.19 3.106-3.19.883 0 1.642.064 1.863.094v2.16h-1.28c-1 0-1.195.48-1.195 1.18v1.54h2.39l-.31 2.42h-2.08V16h4.077c.488 0 .883-.395.883-.883V.883C16 .395 15.605 0 15.117 0"
     fill-rule="nonzero"
     id="path5569" />
  <path
     style="fill:#666666;fill-opacity:1;stroke-width:0.00907029"
     d="M 0.77006803,15.988034 C 0.57809863,15.964277 0.38922883,15.867348 0.24796963,15.720091 0.14303056,15.610695 0.07401666,15.488398 0.03262592,15.338487 L 0.00816327,15.249887 0.00552352,8.0435374 C 0.00357605,2.7270719 0.00556895,0.81821481 0.0131227,0.76484041 0.04070504,0.56994484 0.12639772,0.39918115 0.26588043,0.26115861 0.3745006,0.15367551 0.48955388,0.08546453 0.64366477,0.03718376 L 0.72471655,0.01179138 H 7.9945578 c 7.1040282,0 7.2712902,3.9156e-4 7.3333332,0.0171672 0.16556,0.04476458 0.296386,0.12161792 0.417234,0.24510302 0.11298,0.11544549 0.183124,0.23980202 0.228759,0.40556678 0.01509,0.0548202 0.01605,0.42841292 0.01875,7.27774122 0.0021,5.4243684 2.27e-4,7.2368724 -0.0076,7.2879814 -0.05493,0.356834 -0.305355,0.630617 -0.666173,0.728302 l -0.07256,0.01964 -2.102041,0.0026 -2.102041,0.0026 V 12.905384 9.8122449 h 1.041018 1.041018 l 0.152438,-1.1950113 c 0.08384,-0.6572563 0.154434,-1.2021542 0.156873,-1.2108844 0.0042,-0.015059 -0.05699,-0.015873 -1.194017,-0.015873 h -1.19845 l 0.0036,-0.8911565 c 0.0038,-0.9538734 0.0043,-0.9640608 0.05152,-1.1471336 0.104578,-0.4052999 0.375009,-0.6088879 0.882183,-0.6641339 0.05446,-0.00593 0.365212,-0.00959 0.814096,-0.00959 h 0.726018 l -0.0023,-1.0861678 -0.0023,-1.0861678 -0.05442,-0.00622 C 12.840661,2.4292118 11.681722,2.3919353 11.268934,2.4294495 10.492024,2.5000552 9.8391583,2.7892168 9.3729678,3.2691947 9.2488744,3.3969586 9.1821624,3.4779399 9.08999,3.6126984 8.835729,3.9844371 8.6697771,4.4219779 8.5928682,4.9233877 8.546266,5.2272114 8.5453656,5.2521005 8.5412725,6.3496217 l -0.00385,1.0317078 -1.040141,0.00231 -1.0401409,0.00231 v 1.2108844 1.2108844 l 1.0408163,0.00231 1.0408163,0.00231 v 3.0929327 3.092932 l -3.8526077,-0.0011 c -2.1189342,-6.35e-4 -3.88117914,-0.0047 -3.91609977,-0.009 z"
     id="path5579"
     inkscape:connector-curvature="0" />
</svg>
