<?xml version="1.0" encoding="UTF-8" standalone="no"?>
<svg
   xmlns:dc="http://purl.org/dc/elements/1.1/"
   xmlns:cc="http://creativecommons.org/ns#"
   xmlns:rdf="http://www.w3.org/1999/02/22-rdf-syntax-ns#"
   xmlns:svg="http://www.w3.org/2000/svg"
   xmlns="http://www.w3.org/2000/svg"
   xmlns:sodipodi="http://sodipodi.sourceforge.net/DTD/sodipodi-0.dtd"
   xmlns:inkscape="http://www.inkscape.org/namespaces/inkscape"
   viewBox="0 0 16 16"
   fill-rule="evenodd"
   clip-rule="evenodd"
   stroke-linejoin="round"
   stroke-miterlimit="1.414"
   version="1.1"
   id="svg5347"
   sodipodi:docname="github.svg"
   inkscape:version="0.92.3 (2405546, 2018-03-11)">
  <metadata
     id="metadata5353">
    <rdf:RDF>
      <cc:Work
         rdf:about="">
        <dc:format>image/svg+xml</dc:format>
        <dc:type
           rdf:resource="http://purl.org/dc/dcmitype/StillImage" />
      </cc:Work>
    </rdf:RDF>
  </metadata>
  <defs
     id="defs5351" />
  <sodipodi:namedview
     pagecolor="#ffffff"
     bordercolor="#666666"
     borderopacity="1"
     objecttolerance="10"
     gridtolerance="10"
     guidetolerance="10"
     inkscape:pageopacity="0"
     inkscape:pageshadow="2"
     inkscape:window-width="3840"
     inkscape:window-height="2041"
     id="namedview5349"
     showgrid="false"
     inkscape:zoom="110.25"
     inkscape:cx="8"
     inkscape:cy="8"
     inkscape:window-x="0"
     inkscape:window-y="0"
     inkscape:window-maximized="1"
     inkscape:current-layer="svg5347" />
  <path
     d="M8 0C3.58 0 0 3.582 0 8c0 3.535 2.292 6.533 5.47 7.59.4.075.547-.172.547-.385 0-.19-.007-.693-.01-1.36-2.226.483-2.695-1.073-2.695-1.073-.364-.924-.89-1.17-.89-1.17-.725-.496.056-.486.056-.486.803.056 1.225.824 1.225.824.714 1.223 1.873.87 2.33.665.072-.517.278-.87.507-1.07-1.777-.2-3.644-.888-3.644-3.953 0-.873.31-1.587.823-2.147-.09-.202-.36-1.015.07-2.117 0 0 .67-.215 2.2.82.64-.178 1.32-.266 2-.27.68.004 1.36.092 2 .27 1.52-1.035 2.19-.82 2.19-.82.43 1.102.16 1.915.08 2.117.51.56.82 1.274.82 2.147 0 3.073-1.87 3.75-3.65 3.947.28.24.54.73.54 1.48 0 1.07-.01 1.93-.01 2.19 0 .21.14.46.55.38C13.71 14.53 16 11.53 16 8c0-4.418-3.582-8-8-8"
     id="path5345" />
  <path
     style="fill:#666666;fill-opacity:1;stroke-width:0.00907029"
     d="M 5.4956916,15.590406 C 5.4401729,15.578472 5.1884378,15.487386 5.0013605,15.411542 3.8102738,14.928657 2.7596664,14.171439 1.9203566,13.19093 0.86116304,11.953546 0.20565302,10.420534 0.04513746,8.8054422 0.01498155,8.5020162 0.00915467,8.3721551 0.00911935,8.0027211 0.0090748,7.5368573 0.02642485,7.2785083 0.08570556,6.8623224 0.30616859,5.3145411 0.97655401,3.870275 2.0214159,2.6920635 3.1690121,1.3980062 4.7300488,0.49873159 6.4117914,0.16287683 7.177859,0.00988821 7.9710624,-0.0320392 8.7470571,0.03943856 10.470825,0.19821687 12.103447,0.92049161 13.384447,2.0910292 c 0.164252,0.1500884 0.488745,0.4798083 0.621543,0.6315546 0.360645,0.4121057 0.667602,0.8428085 0.947893,1.3300239 0.106771,0.1855949 0.311689,0.5982649 0.399194,0.8039079 0.521033,1.2244716 0.727701,2.53616 0.609326,3.8672939 -0.130527,1.4677895 -0.673101,2.8777335 -1.561967,4.0589565 -0.241496,0.320927 -0.4657,0.578232 -0.754782,0.866214 -0.853718,0.850469 -1.882784,1.492151 -3.029781,1.889243 -0.129714,0.04491 -0.133075,0.04554 -0.244898,0.04622 -0.09516,5.71e-4 -0.121798,-0.0025 -0.165758,-0.01893 C 10.100712,15.52636 10.03315,15.458114 9.9879909,15.34608 l -0.020493,-0.05084 -9.07e-5,-1.278911 -9.07e-5,-1.278912 -0.021302,-0.136054 C 9.8766458,12.158309 9.72562,11.81952 9.4923746,11.583731 c -0.02563,-0.02591 -0.046601,-0.04938 -0.046601,-0.05216 0,-0.0028 0.013265,-0.0051 0.029478,-0.0051 0.036693,0 0.3759202,-0.04857 0.5102041,-0.073 0.8022363,-0.145929 1.4017173,-0.391343 1.8828363,-0.770791 0.143398,-0.113095 0.387225,-0.36309 0.496189,-0.50874 0.408096,-0.5454974 0.630656,-1.2110861 0.701761,-2.0986866 0.01799,-0.2245701 0.01563,-0.7228811 -0.0042,-0.8843537 C 12.98262,6.5435973 12.75102,6.010339 12.332866,5.5119527 l -0.06609,-0.078773 0.03074,-0.093914 c 0.1638,-0.5004599 0.162539,-1.1033048 -0.0035,-1.6902858 -0.04047,-0.1430214 -0.102536,-0.319188 -0.117863,-0.3345157 -0.01761,-0.017607 -0.273146,-0.018652 -0.389475,-0.00159 -0.463807,0.068018 -1.025853,0.3157128 -1.677775,0.7393996 L 9.9854567,4.1324732 9.8494023,4.0971556 C 9.7745723,4.0777311 9.6357968,4.0457702 9.5410122,4.0261316 8.3856618,3.7867524 7.2258119,3.8151269 6.0732302,4.1109673 L 5.9886681,4.1326725 5.8464728,4.0396698 C 5.2336589,3.6388395 4.6485931,3.382428 4.1895692,3.3135003 c -0.091017,-0.013667 -0.3064993,-0.018339 -0.3690256,-0.008 -0.033302,0.00551 -0.033562,0.0059 -0.070715,0.1071928 -0.079223,0.2159899 -0.1435105,0.4788368 -0.1786949,0.7306185 -0.022804,0.1631875 -0.022767,0.5866045 6.35e-5,0.739229 0.028593,0.1911349 0.072883,0.3726082 0.1225445,0.502112 l 0.018636,0.048597 -0.070004,0.082922 C 3.2316552,6.0026827 3.0012095,6.5209015 2.9199595,7.1407124 c -0.035928,0.2740758 -0.034107,0.7228094 0.00447,1.1007076 0.1323541,1.2966371 0.6520224,2.181083 1.6000471,2.72319 0.468406,0.267849 1.0848487,0.452538 1.848241,0.553745 l 0.1514008,0.02007 -0.068418,0.07342 c -0.1280479,0.137403 -0.2414843,0.329472 -0.3157399,0.534607 -0.034233,0.09457 -0.07901,0.263929 -0.095094,0.359671 -0.00545,0.03243 -0.011849,0.06782 -0.014225,0.07865 -0.00868,0.03955 -0.342173,0.152621 -0.5719015,0.193899 C 5.0173453,12.857982 4.603535,12.781972 4.2726889,12.5607 4.0530049,12.4138 3.8942454,12.239041 3.7072504,11.93828 3.6131745,11.786971 3.511709,11.661512 3.3851835,11.540056 3.1592799,11.323204 2.9011732,11.183748 2.6280799,11.130989 c -0.1435912,-0.02774 -0.325041,-0.01701 -0.420372,0.02485 -0.185017,0.08125 -0.1052038,0.235892 0.2403628,0.465719 0.069841,0.04645 0.1616781,0.115009 0.2040817,0.152352 0.2536608,0.223393 0.4756538,0.561725 0.653024,0.995252 0.1141193,0.27893 0.2210594,0.43983 0.4229725,0.636399 0.3017686,0.293781 0.6936579,0.466284 1.1836946,0.521041 0.100723,0.01126 0.1828762,0.01345 0.3616241,0.0097 0.2410032,-0.0051 0.4000174,-0.02144 0.6144763,-0.06318 l 0.1086963,-0.02115 0.00576,0.09126 c 0.00317,0.05019 0.00591,0.370957 0.0061,0.712807 3.265e-4,0.597915 -3.546e-4,0.623793 -0.017931,0.680697 -0.03504,0.113448 -0.114776,0.197576 -0.2245857,0.236957 -0.058565,0.021 -0.207533,0.03023 -0.2702842,0.01674 z"
     id="path5355"
     inkscape:connector-curvature="0" />
</svg>
