<?xml version="1.0" encoding="UTF-8" standalone="no"?>
<svg
   xmlns:dc="http://purl.org/dc/elements/1.1/"
   xmlns:cc="http://creativecommons.org/ns#"
   xmlns:rdf="http://www.w3.org/1999/02/22-rdf-syntax-ns#"
   xmlns:svg="http://www.w3.org/2000/svg"
   xmlns="http://www.w3.org/2000/svg"
   xmlns:sodipodi="http://sodipodi.sourceforge.net/DTD/sodipodi-0.dtd"
   xmlns:inkscape="http://www.inkscape.org/namespaces/inkscape"
   id="svg2"
   preserveAspectRatio="xMidYMid meet"
   viewBox="0 0 80 80"
   height="100"
   width="100"
   version="1"
   sodipodi:docname="instagram.svg"
   inkscape:version="0.92.3 (2405546, 2018-03-11)">
  <sodipodi:namedview
     pagecolor="#ffffff"
     bordercolor="#666666"
     borderopacity="1"
     objecttolerance="10"
     gridtolerance="10"
     guidetolerance="10"
     inkscape:pageopacity="0"
     inkscape:pageshadow="2"
     inkscape:window-width="3840"
     inkscape:window-height="2041"
     id="namedview5227"
     showgrid="false"
     inkscape:zoom="17.64"
     inkscape:cx="50"
     inkscape:cy="50"
     inkscape:window-x="0"
     inkscape:window-y="0"
     inkscape:window-maximized="1"
     inkscape:current-layer="svg2" />
  <title
     id="title2997">
    Instagram icon
  </title>
  <defs
     id="defs18" />
  <metadata
     id="metadata4">
    
Created by potrace 1.12, written by Peter Selinger 2001-2015

    <rdf:RDF>
  <cc:Work
     rdf:about="">
    <dc:format>
          image/svg+xml
        </dc:format>
    <dc:type
       rdf:resource="http://purl.org/dc/dcmitype/StillImage" />
    <dc:title>
          Instagram icon
        </dc:title>
  </cc:Work>
</rdf:RDF>
</metadata>
  <g
     id="g6"
     transform="matrix(0.01880253,0,0,-0.01877464,-8.09169,88.053468)"
     fill="#000">
    <path
       id="path10"
       d="m1288 4123-3-508-48-3c-27-2-55 2-63 9-12 10-14 90-14 500 0 555 10 502-90 471l-55-18-5-479-5-480-53-3c-31-2-60 2-68 9-12 10-14 82-14 435 0 390-1 424-17 424-9 0-60-44-114-98-86-87-103-111-147-203-84-172-85-176-89-571l-5-348 671 0c369 0 671 4 671 8 0 13 119 107 191 150 87 53 188 95 295 123 131 34 340 33 475-3 160-43 317-124 436-225l62-53 666 0 667 0-4 353c-4 329-6 357-27 427-42 142-93 224-215 346-122 121-203 172-346 216l-75 23-1197 3-1198 3-2-508-3-508-48-3c-27-2-55 2-63 9-12 10-14 91-14 510l0 499-75 0-75 0-2-507zm2872 122c17-9 39-33 50-55 18-36 20-59 20-277 0-344 11-333-329-333-258 0-289 7-322 72-19 37-20 55-17 289l3 251 37 34 38 34 245 0c201 0 251-3 275-15zM2445 3353" />
    <path
       id="path12"
       d="m2445 3353c-352-49-638-331-695-686-17-103-8-270 20-367 39-137 92-223 210-340 117-118 193-167 312-205 468-148 948 112 1069 580 27 104 29 300 5 395-44 171-98 264-231 395-129 129-240 187-413 221-69 13-207 17-277 7zm220-248c78-16 234-90 280-133 81-75 147-183 181-298 25-82 22-218-5-304-76-241-306-413-551-413-90 0-159 18-260 66-195 92-323 297-323 517-1 269 194 506 464 564 84 19 129 19 214 1z" />
    <path
       id="path14"
       d="m502 2153 3-1008 23-75C572 927 623 846 744 724 868 601 951 550 1096 508l79-23 1385 0 1385 0 79 23c159 46 270 115 389 242 83 88 151 206 189 330l23 75 3 1003 3 1002-616 0c-536 0-615-2-615-15 0-8 16-40 36-70 189-297 208-678 50-994-162-322-460-529-823-571-292-34-630 92-840 314-84 88-131 158-193 289-73 151-94 249-94 427 0 117 4 162 22 234 26 105 74 219 125 299 20 32 37 64 37 72 0 13-78 15-610 15l-611 0 3-1007z" />
  </g>
  <path
     style="fill:#666666;fill-opacity:1;stroke-width:0.05668934"
     d="M 16.150794,98.267608 C 14.317062,97.719495 13.594933,97.452823 12.522676,96.927795 10.709423,96.039949 9.1486667,94.838396 7.1360499,92.780896 4.3791833,89.962551 3.3078993,88.168238 2.1825114,84.484127 L 1.784222,83.180272 1.7254261,65.26644 C 1.6930884,55.413832 1.6666385,44.779953 1.6666485,41.635598 l 1.82e-5,-5.717011 13.3361673,0.02941 c 15.030079,0.03315 15.36866,0.04198 15.258408,0.397824 -0.07191,0.232095 -0.379134,0.805215 -0.904586,1.687486 -1.811312,3.041321 -3.056665,6.599035 -3.311765,9.461021 -0.07489,0.840232 -0.07564,4.583816 -0.0011,5.533151 0.221557,2.821823 0.800622,4.75582 2.399982,8.015602 1.19145,2.42839 2.14562,3.883314 3.660394,5.58139 2.011629,2.255057 4.383073,4.054521 7.204223,5.466604 2.61912,1.310959 5.223572,2.119488 8.074351,2.50661 1.227998,0.166755 3.60446,0.208246 4.79413,0.0837 7.089705,-0.742219 13.198605,-4.14405 17.307863,-9.638136 3.317125,-4.435009 4.995634,-9.666723 4.839115,-15.082935 -0.120748,-4.178315 -1.257063,-8.08745 -3.361848,-11.565423 -0.563435,-0.931024 -1.056015,-1.830952 -1.122755,-2.05123 -0.106667,-0.352055 0.317449,-0.362933 15.427404,-0.395692 l 13.446921,-0.02915 -0.02857,6.737302 c -0.01572,3.705517 -0.05205,14.301079 -0.08074,23.545693 l -0.05217,16.80839 -0.370125,1.175461 c -0.573583,1.821639 -1.007993,2.903842 -1.633078,4.068303 -0.947285,1.764685 -1.927285,3.111311 -3.28377,4.512245 -1.792817,1.85157 -3.418299,3.068883 -5.402307,4.04576 -1.144218,0.563384 -2.065675,0.905703 -3.890012,1.44513 l -1.446502,0.427704 -32.50748,-0.0053 -32.50748,-0.0053 -1.360544,-0.406678 z"
     id="path5229"
     inkscape:connector-curvature="0"
     transform="scale(0.8)" />
  <path
     style="fill:#666666;fill-opacity:1;stroke-width:0.05668934"
     d="m 48.747166,69.794853 c -1.85362,-0.149806 -3.464538,-0.458905 -5.045352,-0.968092 -2.142211,-0.690014 -3.643174,-1.536119 -5.442177,-3.067797 -0.772147,-0.65741 -2.953333,-2.852038 -3.560151,-3.582093 -1.390492,-1.672883 -2.253014,-3.224614 -2.930476,-5.272109 -0.629646,-1.90298 -0.907382,-3.897772 -0.907285,-6.516434 5.3e-5,-1.411683 0.05736,-2.196836 0.231934,-3.177444 0.782093,-4.393235 3.080893,-8.413906 6.485753,-11.343778 2.687369,-2.312473 5.782525,-3.767239 9.353695,-4.396365 0.886304,-0.156138 0.95366,-0.159707 2.947845,-0.156201 2.223221,0.0039 3.058843,0.06815 4.341378,0.333731 2.979078,0.616903 5.22798,1.633263 7.336627,3.315685 0.776762,0.619753 2.054693,1.815132 2.837091,2.653821 2.440641,2.616234 3.539178,4.584833 4.470961,8.012046 0.319421,1.174869 0.425285,2.070954 0.468077,3.962014 0.0652,2.881141 -0.186695,4.90845 -0.862623,6.942685 -0.723557,2.177574 -1.749728,4.097883 -3.165538,5.923777 -0.560827,0.72327 -1.967263,2.178612 -2.699215,2.793076 -2.936889,2.465478 -6.305467,3.919861 -10.289116,4.442323 -0.605967,0.07947 -3.000507,0.147295 -3.571428,0.101155 z m 2.757599,-5.693969 c 5.277084,-0.540355 9.98402,-4.331504 11.671262,-9.400489 0.759169,-2.28077 0.814164,-5.421001 0.133151,-7.602889 -0.943183,-3.021849 -2.969419,-6.044608 -4.921308,-7.341655 -1.646347,-1.094011 -4.464324,-2.308223 -6.097621,-2.627347 -1.988152,-0.388458 -3.212936,-0.344488 -5.300453,0.190288 -5.263177,1.348309 -9.208263,5.497719 -10.213456,10.742432 -0.178769,0.932746 -0.246317,2.837156 -0.134991,3.805883 0.355877,3.096761 1.633188,5.828459 3.743835,8.006688 1.33037,1.372969 2.535235,2.196903 4.450417,3.043373 1.45224,0.641859 2.875719,1.055305 4.05936,1.17903 0.688256,0.07194 1.931173,0.07417 2.609804,0.0047 z"
     id="path5231"
     inkscape:connector-curvature="0"
     transform="scale(0.8)" />
  <path
     style="fill:#666666;fill-opacity:1;stroke-width:0.05668934"
     d="m 1.6336854,31.947279 c 0.019561,-0.880811 0.060062,-3.578515 0.090004,-5.994898 0.079689,-6.431319 0.1258781,-7.6543 0.34363,-9.09864 0.2346562,-1.556465 0.6142252,-2.57232 1.9810346,-5.30192 C 4.9090082,9.8330425 5.3343224,9.2526247 6.908935,7.6480448 8.5276797,5.9984925 9.6881576,4.9773243 9.9440011,4.9773243 c 0.2840939,0 0.3352269,0.9676138 0.3415129,6.4625847 0.007,6.078291 0.09032,12.515904 0.168845,13.038549 0.119043,0.792298 0.193137,0.825224 1.830981,0.813677 0.648944,-0.0046 1.194761,-0.02318 1.212928,-0.04135 0.01817,-0.01817 0.0799,-4.453199 0.137178,-9.855627 0.05728,-5.4024287 0.110953,-10.4579075 0.119271,-11.2343973 l 0.01512,-1.4117997 1.240616,-0.4164316 c 0.682338,-0.2290374 1.311448,-0.4164316 1.398022,-0.4164316 0.208939,0 0.419428,0.2541617 0.501948,0.606095 0.170438,0.7268864 0.186642,1.5140313 0.230835,11.2136332 0.04411,9.682499 0.0669,10.799828 0.228889,11.2259 0.108789,0.286139 0.362207,0.339499 1.574969,0.331626 0.601505,-0.0039 1.111446,-0.0249 1.133201,-0.04666 0.04693,-0.04693 0.113568,-10.024532 0.1207,-18.0726607 l 0.0051,-5.7114513 h 1.753362 1.753363 l 0.02566,11.096939 c 0.02593,11.210927 0.03955,11.935886 0.232987,12.398851 0.124742,0.298547 0.337553,0.343464 1.581213,0.333737 0.586598,-0.0046 1.084047,-0.02582 1.105442,-0.04719 0.04594,-0.04588 0.105511,-8.673673 0.116294,-16.8432453 0.0042,-3.1832164 0.02432,-6.0603607 0.04472,-6.3936538 l 0.03708,-0.6059875 12.136958,0.035756 c 6.675327,0.019666 19.343592,0.055664 28.151698,0.079996 l 16.014739,0.04424 1.247166,0.3938942 c 2.419223,0.7640671 3.587336,1.2806208 5.009036,2.2150574 1.045391,0.6870977 1.953628,1.4535011 3.372126,2.8455102 2.963855,2.9085169 4.252954,4.9559908 5.217852,8.2875278 0.518304,1.789565 0.537154,2.201483 0.691417,15.112652 l 0.03742,3.132086 -15.638985,-0.0012 -15.638979,-0.0012 -0.935375,-0.794997 c -1.883645,-1.600952 -3.263055,-2.5405 -5.243764,-3.571637 -2.021054,-1.052141 -4.432573,-1.947829 -6.312356,-2.34454 -2.690602,-0.567826 -6.437125,-0.62669 -9.212567,-0.144745 -2.81036,0.488008 -6.389149,1.947902 -8.936528,3.645472 -1.367603,0.911369 -3.509013,2.617106 -3.636312,2.896499 -0.05705,0.125212 -0.09457,0.132119 -0.9185,0.169084 -1.69494,0.07604 -11.577186,0.144636 -21.032182,0.145986 l -9.6289448,0.0014 z M 86.530612,25.95714 c 1.646735,-0.2814 2.244728,-0.763022 2.547942,-2.052095 0.214127,-0.91036 0.241168,-1.721078 0.212472,-6.371031 -0.0271,-4.39136 -0.03871,-4.655976 -0.233299,-5.319198 -0.213504,-0.727677 -0.962744,-1.633008 -1.525805,-1.843677 -0.609694,-0.228114 -1.091083,-0.247818 -6.713691,-0.274798 l -5.400584,-0.02591 -0.523452,0.467349 c -0.287897,0.257041 -0.68496,0.617264 -0.88237,0.800494 l -0.358917,0.333147 -0.0576,4.150119 c -0.07384,5.321058 -0.04522,7.210316 0.118622,7.830564 0.197239,0.746678 0.622234,1.435858 1.067205,1.730594 0.545482,0.361313 1.288589,0.531144 2.720443,0.621738 1.116967,0.07067 8.567074,0.03165 9.02903,-0.04729 z"
     id="path5233"
     inkscape:connector-curvature="0"
     transform="scale(0.8)" />
</svg>
