<?xml version="1.0" encoding="UTF-8" standalone="no"?>
<svg
   xmlns:dc="http://purl.org/dc/elements/1.1/"
   xmlns:cc="http://creativecommons.org/ns#"
   xmlns:rdf="http://www.w3.org/1999/02/22-rdf-syntax-ns#"
   xmlns:svg="http://www.w3.org/2000/svg"
   xmlns="http://www.w3.org/2000/svg"
   xmlns:sodipodi="http://sodipodi.sourceforge.net/DTD/sodipodi-0.dtd"
   xmlns:inkscape="http://www.inkscape.org/namespaces/inkscape"
   version="1.1"
   x="0px"
   y="0px"
   viewBox="0 0 71 76.3"
   style="enable-background:new 0 0 71 76.3;"
   xml:space="preserve"
   id="svg5134"
   sodipodi:docname="keybase.svg"
   inkscape:version="0.92.3 (2405546, 2018-03-11)"><metadata
     id="metadata5140"><rdf:RDF><cc:Work
         rdf:about=""><dc:format>image/svg+xml</dc:format><dc:type
           rdf:resource="http://purl.org/dc/dcmitype/StillImage" /></cc:Work></rdf:RDF></metadata><defs
     id="defs5138" /><sodipodi:namedview
     pagecolor="#ffffff"
     bordercolor="#666666"
     borderopacity="1"
     objecttolerance="10"
     gridtolerance="10"
     guidetolerance="10"
     inkscape:pageopacity="0"
     inkscape:pageshadow="2"
     inkscape:window-width="3840"
     inkscape:window-height="2041"
     id="namedview5136"
     showgrid="false"
     inkscape:zoom="23.119265"
     inkscape:cx="35.5"
     inkscape:cy="48.530954"
     inkscape:window-x="0"
     inkscape:window-y="0"
     inkscape:window-maximized="1"
     inkscape:current-layer="svg5134" /><style
     type="text/css"
     id="style5128">.st0{fill:#000000;}</style><g
     transform="translate(-241.11756,-377.8123)"
     id="g5132"><path
       class="st0"
       d="M247.8,451.8c-0.6-1.3-1.4-3.1-1.8-4l-0.6-1.7l-2,2.2l-2,2.2 l-0.2-4.2c-0.3-6,0.2-12.2,1.2-16.6c2.3-9.8,9.5-18.7,18.8-23.4l2.1-1l-0.5-1.5c-0.3-0.8-0.6-2.5-0.7-3.6l-0.2-2.1l-2.1-0.2 c-3.2-0.3-4.9-1.2-6-3.5c-0.6-1.2-0.6-1.4-0.4-4.6c0.2-4.2,0.5-5.1,1.8-6.5c1.6-1.8,2.7-2.1,6.7-1.9c2.9,0.2,3.5,0.3,4.8,0.9 c0.8,0.4,1.5,0.8,1.6,0.8c0.1,0,1-1.1,2.1-2.6l1.9-2.7l1.2,0.7c0.7,0.4,1.5,0.9,1.9,1.1l0.7,0.4l-0.6,1.5c-0.3,0.8-0.7,2.2-0.8,2.9 l-0.2,1.4l1.7,0.2c6.1,0.6,10.7,4.3,12.4,9.9c0.5,1.8,0.5,5.3,0,7c-0.5,1.6-0.5,1.7-0.1,1.7c0.7,0,5.4,2.3,7.3,3.5 c3.7,2.4,8,6.6,10.4,10.2c4.5,6.7,6.4,14,5.6,22c-0.4,4.8-1.3,8.6-2.9,12.3l-0.6,1.4l-2.5,0l-2.5,0l1.2-2.4 c1.3-2.6,2.3-6.2,2.8-9.4c0.3-2.2,0.4-8.2,0.1-9.3l-0.2-0.7l-1.3,1.4c-3.2,3.5-7.9,4.5-14.2,2.8c-5.4-1.4-7.6-1.7-12.7-1.7 c-3.9,0-5.2,0.1-7.3,0.6c-5.8,1.3-9.9,3.2-15.6,7.3c-2.1,1.5-3.8,2.7-3.9,2.7c-0.1,0,0.2-1,0.6-2.3c0.4-1.3,1.1-3.4,1.5-4.8 l0.8-2.5l-0.9,0.9c-0.5,0.5-1.9,1.9-3.1,3.2l-2.1,2.3l0.5,1.9c0.6,2.5,2,5.6,3.5,7.9c0.6,1,1.1,1.8,1.1,1.9s-1.2,0.1-2.6,0.1h-2.6 L247.8,451.8L247.8,451.8z M256.6,427.6c4.8-5.1,8.7-9.2,8.8-9.2c0.1,0.1-0.4,1.6-0.9,3.3c-3.3,10.4-4,12.4-3.9,12.5 c0,0,1.2-0.4,2.5-0.9c8.5-3.7,18.4-4.2,28.9-1.4c4.7,1.2,6.5,1.2,8.8,0c1.3-0.7,1.8-1.1,2.4-2.1c1.1-1.7,1.2-4.1,0.5-6.3 c-1.7-4.8-8.3-11-14.5-13.7c-3.2-1.4-3.4-1.4-4.1-0.7l-0.6,0.6l2.6,3.2c1.4,1.7,2.9,3.6,3.1,4.1c0.6,1.2,0.7,3.1,0.1,4.3 c-0.8,1.7-3.2,2.9-5.1,2.5c-0.8-0.2-1.1-0.1-1.9,0.5c-2.2,1.6-4.6,1.2-6.6-1.2c-1.6-1.8-2-2.7-2.1-4.5c0-0.9-0.3-2-0.5-2.4 c-0.3-0.6-0.4-1.3-0.4-2.2l0.1-1.4l-1.3-0.3c-1.8-0.5-3.9-1.5-5.1-2.4c-0.6-0.4-1.1-0.8-1.3-0.8s-1.5,0.6-2.9,1.3 c-9.7,5-16,14.3-17,24.8c-0.1,1-0.2,2.3-0.3,2.8l-0.1,0.9l1.1-1.1C247.4,437.3,251.8,432.7,256.6,427.6L256.6,427.6z M282.5,420.2 c0.9-0.7,1.7-1.3,1.9-1.3c0.1,0,0.4,0.3,0.7,0.7c0.5,0.8,1.4,0.8,1.8,0.1c0.3-0.5,0.3-0.6-5.6-7.8c-3.5-4.3-4.2-5-4.7-5 c-1.2,0.1-0.9,1,1,3.3l1.8,2.2l-1,0.8c-1.1,1-1.2,1.2-0.5,1.8c0.5,0.5,0.6,0.4,1.6-0.3l1.1-0.7l0.7,0.6c0.4,0.3,0.6,0.8,0.6,0.9 c0,0.2-0.8,0.9-1.7,1.7c-0.9,0.7-1.6,1.5-1.6,1.7c0,0.3,0.5,1.1,1.4,2.2C280.3,421.7,280.8,421.5,282.5,420.2L282.5,420.2z  M272.2,406c0.6-1.8,2.6-3.2,4.6-3.2c1.1,0,2.7,0.9,3.8,2.1l1,1.2l0.9-1.1c2.5-2.8,2.8-6.7,0.8-10.1c-1.5-2.5-4.3-4-8.2-4.4 c-2.1-0.2-2.6-0.4-3.7-1.5l-0.8-0.8l-0.4,0.6c-0.8,1.2-2.5,5.1-3,6.6c-0.7,2.3-0.4,5.9,0.5,7.7c0.9,1.7,3.3,4,4,3.7 C271.8,406.9,272,406.5,272.2,406L272.2,406z M263.3,392.4c0.2-0.5,0.7-1.8,1.2-2.8c0.5-1,0.9-2,0.9-2.3c0-0.9-1-1.3-3.7-1.5 c-2.4-0.2-2.6-0.1-3.1,0.4c-0.4,0.4-0.6,0.9-0.6,1.6c0,0.6-0.1,1.7-0.2,2.6c-0.2,2.1,0.1,2.5,2.2,2.8 C263.1,393.4,263,393.4,263.3,392.4z M260.2,390c0-1.7,0.2-1.9,1.6-1.9h1.3v1.4v1.4h-1.4h-1.4V390z M266.5,448.3 c-0.6-0.6-0.8-1-0.8-2c0-1.9,1.1-3,2.9-3c1.7,0,2.9,1.2,2.9,2.9c0,1.8-1.1,2.8-3,2.9C267.5,449.1,267.1,448.9,266.5,448.3 L266.5,448.3z M285.8,448.6c-2.3-1.8-1.1-5.3,1.8-5.3c1.8,0,2.8,1.1,2.9,3c0,1.1-0.1,1.4-0.8,2s-1,0.8-2,0.8 C286.8,449.1,286.2,448.9,285.8,448.6L285.8,448.6z"
       id="path5130" /></g><path
     style="fill:#666666;fill-opacity:1;stroke-width:0.04325397"
     d="m 62.248255,76.139643 c 0,-0.01207 0.255627,-0.532742 0.568054,-1.157043 0.691082,-1.380927 1.007282,-2.064629 1.335125,-2.886883 0.819758,-2.055982 1.541944,-4.705621 1.966801,-7.216025 0.234779,-1.387272 0.341564,-3.33434 0.344375,-6.279213 0.0023,-2.434014 -0.03237,-3.021697 -0.219561,-3.719842 -0.0606,-0.226002 -0.123667,-0.435191 -0.140152,-0.464863 -0.01942,-0.03495 -0.333021,0.273183 -0.890569,0.875045 -0.473323,0.51095 -1.027312,1.077409 -1.231081,1.258798 -1.72794,1.538168 -3.640782,2.389709 -6.12327,2.725887 -0.694771,0.09409 -2.63969,0.107452 -3.395437,0.02333 -1.444167,-0.16075 -2.228141,-0.316935 -4.671428,-0.93067 -3.68818,-0.92644 -5.404705,-1.222383 -8.239882,-1.420625 -1.094428,-0.07652 -6.666983,-0.07534 -7.634325,0.0016 -1.534697,0.122102 -2.466899,0.289348 -4.649802,0.834218 -4.289066,1.070592 -7.807212,2.644608 -11.829961,5.292729 -0.946876,0.623311 -1.318205,0.881261 -3.814935,2.650063 -1.809819,1.282164 -2.516309,1.757759 -2.533687,1.705625 -0.03405,-0.102166 0.405088,-1.599221 1.201219,-4.095009 0.265603,-0.832639 0.579738,-1.83505 0.698079,-2.22758 0.118341,-0.39253 0.390757,-1.263993 0.605368,-1.93658 0.214612,-0.67259 0.383133,-1.244105 0.374491,-1.270027 -0.01577,-0.04731 -2.766157,2.745399 -3.818937,3.877705 -1.2061339,1.297269 -2.2707252,2.480088 -2.2707252,2.522927 0,0.0247 0.156447,0.644592 0.3476598,1.377535 0.6220496,2.384401 1.1607579,3.823824 2.2065664,5.895923 0.491162,0.973158 0.750945,1.430188 1.561216,2.746627 0.694964,1.129097 0.966458,1.615254 0.92512,1.656592 -0.06337,0.06337 -0.850936,0.08778 -2.9493963,0.09143 l -2.1693496,0.0038 -0.5604175,-1.070536 C 6.3817648,73.36622 5.0167582,70.319722 4.5844845,69.079125 4.4332772,68.645166 4.2966829,68.289943 4.2809415,68.28974 c -0.015741,0 -0.9110987,0.970887 -1.9896827,2.157984 -1.078584,1.1871 -1.96816488,2.15159 -1.97684643,2.143312 C 0.29044175,72.56818 0.1027342,68.595688 0.04574808,66.905241 -0.11050072,62.270249 0.322766,56.612081 1.1354341,52.674685 2.916316,44.046266 8.5780392,35.89213 16.424836,30.654553 c 1.492879,-0.996466 2.807486,-1.737601 4.5726,-2.577892 0.623019,-0.296591 1.147282,-0.553237 1.16503,-0.570325 0.01775,-0.01709 -0.07525,-0.351334 -0.206652,-0.742769 -0.609863,-1.816678 -0.802358,-2.792667 -1.04039,-5.274995 -0.06273,-0.654216 -0.120942,-1.1969 -0.129352,-1.205965 -0.0084,-0.0091 -0.497725,-0.06176 -1.087368,-0.117104 -2.037255,-0.191212 -2.779278,-0.315719 -3.683633,-0.618086 -1.159079,-0.387533 -1.955397,-0.942378 -2.621381,-1.826479 -0.399369,-0.530168 -0.978865,-1.671437 -1.104839,-2.175892 -0.113905,-0.456127 -0.113556,-1.405934 0.0013,-3.416579 0.185323,-3.2454161 0.337272,-4.2353381 0.79739,-5.1948556 0.231598,-0.4829695 0.449819,-0.7933146 0.975832,-1.3877876 0.976614,-1.1037185 1.762643,-1.6032589 2.881513,-1.8312701 0.944541,-0.192485 2.81719,-0.2018925 4.947456,-0.024854 2.17252,0.1805499 2.687942,0.3178519 4.318794,1.1504737 0.507846,0.2592777 0.939366,0.4714142 0.958932,0.4714142 0.170902,0 1.600828,-1.8446419 3.178425,-4.1002506 0.452004,-0.64626401 0.834512,-1.17540982 0.850019,-1.1758796 0.01551,-4.6978e-4 0.531309,0.2945683 1.14623,0.65564014 0.61492,0.36107186 1.439198,0.83904656 1.831728,1.06216606 0.392529,0.2231195 0.726429,0.4191703 0.741998,0.4356685 0.01557,0.016498 -0.126919,0.4192824 -0.316642,0.8950761 -0.354672,0.8894607 -0.696069,1.9485178 -0.884913,2.7451114 -0.107828,0.454848 -0.366948,2.1264534 -0.335007,2.16116 0.0094,0.010215 0.479122,0.072037 1.043824,0.137382 2.048867,0.2370866 2.793967,0.3816687 4.032883,0.7825551 2.200659,0.7120862 3.956243,1.7771983 5.540405,3.3613613 0.953421,0.953421 1.681437,1.923544 2.327397,3.10139 0.455408,0.83039 0.981047,2.117331 1.172468,2.87059 0.236149,0.929251 0.376858,2.629637 0.327588,3.958705 -0.05432,1.465429 -0.164331,2.198328 -0.498338,3.320017 -0.33274,1.11743 -0.330136,1.286531 0.0198,1.286531 0.567007,0 4.064502,1.621167 6.552349,3.037161 2.920573,1.662288 7.015318,5.325499 9.707726,8.684664 1.995297,2.489423 3.792707,5.607744 5.011275,8.694048 1.212141,3.07002 1.913331,6.195993 2.153927,9.602382 0.06567,0.929813 0.06592,3.373524 4.33e-4,4.282143 -0.321723,4.463952 -0.884531,7.627963 -1.915792,10.770238 -0.343666,1.047162 -0.670882,1.901423 -1.230178,3.211608 l -0.456995,1.070535 h -2.46119 c -1.353659,0 -2.461194,-0.0099 -2.461194,-0.02195 z M 6.249575,59.530439 c 1.8606798,-1.918504 4.970955,-5.191329 9.845487,-10.360035 4.838003,-5.129969 7.790335,-8.217526 8.077786,-8.447768 0.07579,-0.0607 0.09842,-0.06489 0.09842,-0.01819 0,0.23391 -0.718787,2.585252 -2.422912,7.925988 -0.789446,2.474128 -1.580306,4.955824 -1.757467,5.514882 -0.573571,1.809984 -0.68806,2.249206 -0.586288,2.249206 0.123626,0 2.19523,-0.770037 3.469048,-1.289483 3.885989,-1.584652 8.219544,-2.508146 12.846429,-2.737622 1.119673,-0.05553 3.985229,-0.02913 4.995834,0.04602 3.410952,0.253658 5.99843,0.68256 9.793598,1.623399 3.106453,0.770107 4.134522,0.945865 5.539934,0.947111 1.00203,9.08e-4 1.381722,-0.05257 2.184326,-0.307553 1.141386,-0.362607 2.556569,-1.182581 3.140597,-1.819695 0.465209,-0.507495 0.974451,-1.384763 1.205341,-2.07642 0.271544,-0.813456 0.322947,-1.183108 0.323008,-2.322863 0,-1.110883 -0.03345,-1.400101 -0.265614,-2.292461 -0.901962,-3.466843 -5.270176,-8.459798 -10.329126,-11.806398 -1.785693,-1.181272 -2.97516,-1.816964 -5.103969,-2.727729 -1.967653,-0.841818 -2.545855,-0.967562 -2.999515,-0.652317 -0.260203,0.180816 -0.929446,0.877652 -0.903965,0.941243 0.01276,0.03185 0.846805,1.070042 1.853433,2.307105 2.176345,2.674547 2.997093,3.719073 3.451813,4.392951 0.506907,0.751219 0.734643,1.410661 0.831727,2.408371 0.08529,0.876484 -0.0369,1.694607 -0.355963,2.383378 -0.220172,0.475287 -0.473865,0.823914 -0.880962,1.210618 -0.792781,0.75306 -1.878304,1.259101 -2.984196,1.391143 -0.448223,0.05352 -0.838335,0.03341 -1.334943,-0.06883 -0.65307,-0.134442 -0.99501,-0.05296 -1.616633,0.38522 -0.818879,0.577228 -1.25794,0.799951 -1.889781,0.958629 -0.531771,0.133551 -0.967203,0.167306 -1.424377,0.110427 -1.194674,-0.148642 -2.257412,-0.783991 -3.329906,-1.990755 -1.647418,-1.853666 -2.061965,-2.683929 -2.192054,-4.390278 -0.09623,-1.262289 -0.239705,-1.963424 -0.553183,-2.703373 -0.281642,-0.664803 -0.334348,-0.971518 -0.334478,-1.946429 -4.3e-5,-0.463899 0.01447,-1.012094 0.03229,-1.21821 l 0.03241,-0.374758 -0.594709,-0.135895 c -1.250518,-0.285751 -2.584754,-0.770548 -3.822619,-1.388956 -0.878366,-0.438811 -1.18916,-0.62491 -2.156201,-1.291103 -0.952377,-0.656091 -1.052583,-0.711815 -1.219866,-0.678358 -0.446511,0.0893 -3.342584,1.515641 -4.559236,2.24546 -0.454033,0.272356 -1.125551,0.695587 -1.492262,0.940514 -7.189817,4.8021 -12.058994,12.249066 -13.4890477,20.630275 -0.1646471,0.964957 -0.2348327,1.521947 -0.3706281,2.94127 -0.060317,0.630427 -0.1578779,1.533729 -0.2168019,2.007343 -0.1466271,1.178532 -0.152119,1.125317 0.091738,0.888865 0.1093806,-0.106059 0.727447,-0.737835 1.3734809,-1.403946 z M 39.809991,43.478488 c 0.37834,-0.190698 0.740468,-0.440574 1.867672,-1.288735 1.087493,-0.818281 1.453783,-1.062729 1.593549,-1.063473 0.104618,-5.58e-4 0.325391,0.212303 0.670782,0.646747 0.323311,0.406664 0.580278,0.592405 0.875357,0.632726 0.31969,0.04368 0.552547,-0.04477 0.807923,-0.306893 0.255938,-0.262705 0.319249,-0.457083 0.231149,-0.709704 -0.192869,-0.553049 -1.151918,-1.801899 -5.035213,-6.556734 -3.593184,-4.399612 -4.48327,-5.404218 -5.021463,-5.667532 -0.227856,-0.111479 -0.256042,-0.115457 -0.489199,-0.06904 -0.615503,0.12252 -0.706741,0.447473 -0.337631,1.202503 0.258545,0.528864 0.728811,1.167474 2.036647,2.765719 0.618531,0.755878 1.149291,1.40839 1.179467,1.450026 0.04883,0.06738 -0.0059,0.124655 -0.497421,0.520752 -0.627713,0.505831 -1.125543,0.981149 -1.260323,1.203331 -0.05619,0.09263 -0.0919,0.224367 -0.092,0.339424 -1.3e-4,0.173312 0.0227,0.211882 0.291802,0.492592 0.352836,0.368053 0.572538,0.482675 0.803128,0.419007 0.08736,-0.02412 0.416843,-0.214849 0.732174,-0.423836 0.808156,-0.535609 1.268685,-0.827187 1.30649,-0.827187 0.04699,0 0.812756,0.664852 0.963466,0.836502 0.185339,0.211089 0.328889,0.528388 0.296833,0.656109 -0.01466,0.05842 -0.167494,0.247892 -0.339623,0.42104 -0.303448,0.305245 -1.28176,1.187395 -1.588956,1.432772 -0.287538,0.229676 -0.963605,0.914915 -1.151932,1.167562 -0.103918,0.139407 -0.188941,0.295671 -0.188941,0.347252 0,0.248017 0.475618,1.030932 1.124235,1.850602 0.19052,0.240764 0.3464,0.454647 0.3464,0.475301 0,0.02065 0.06326,0.07725 0.140576,0.125774 0.177794,0.111591 0.416361,0.08803 0.73505,-0.0726 z M 30.786732,28.851496 c 0.05236,-0.0779 0.156178,-0.292009 0.230696,-0.475794 0.492182,-1.213878 1.017548,-1.881918 1.981839,-2.520048 0.693042,-0.458628 1.436621,-0.729818 2.244996,-0.818769 0.730902,-0.08043 1.319922,0.05506 2.176213,0.500583 0.931243,0.484517 1.634557,1.076918 2.492006,2.099012 0.296666,0.353631 0.554644,0.642966 0.573284,0.642966 0.01864,0 0.139477,-0.130359 0.268527,-0.289686 0.12905,-0.159327 0.437445,-0.534015 0.685322,-0.832639 1.241925,-1.49618 1.858505,-2.922074 2.039691,-4.716961 0.2097,-2.077366 -0.547423,-4.567364 -1.900475,-6.250199 -0.896349,-1.11482 -2.184049,-2.023186 -3.725815,-2.628255 -1.153681,-0.452764 -2.310201,-0.717472 -3.914484,-0.89596 -1.378584,-0.153376 -1.896005,-0.265527 -2.400596,-0.52033 -0.382142,-0.19297 -0.717947,-0.463834 -1.417093,-1.143043 l -0.656197,-0.637486 -0.277655,0.425434 c -0.651544,0.998323 -1.528956,2.808191 -2.472368,5.099838 -0.779292,1.892986 -0.94154,2.537178 -1.009007,4.006194 -0.09932,2.162571 0.282326,4.384644 0.955021,5.560463 0.751967,1.314381 2.307601,2.932672 3.298311,3.431159 0.21138,0.106358 0.303043,0.128134 0.495941,0.117817 0.21285,-0.01138 0.246203,-0.02689 0.331843,-0.154296 z m -9.105848,-13.43031 c 0.223801,-0.09351 0.325964,-0.222654 0.432291,-0.546457 0.209535,-0.638106 0.885552,-2.261248 1.217001,-2.922068 0.317383,-0.632774 0.721181,-1.57876 0.857623,-2.0091685 C 24.31286,9.5489843 24.319176,9.50009 24.273498,9.2800614 24.117032,8.5263696 23.17308,8.1878368 20.616309,7.968473 20.164305,7.929692 19.453858,7.89509 19.037539,7.89158 18.066773,7.8834 17.932083,7.923126 17.513367,8.3411678 c -0.3176,0.3170893 -0.520281,0.6797029 -0.589747,1.0551084 -0.0223,0.1204943 -0.06235,0.6180988 -0.08901,1.1057878 -0.02666,0.487688 -0.08648,1.256528 -0.132942,1.708532 -0.140914,1.370919 -0.106166,1.94312 0.143911,2.369844 0.281896,0.48102 1.111787,0.762646 2.51623,0.853891 0.356918,0.02319 0.755997,0.04955 0.88684,0.05858 0.489437,0.03378 1.273726,-0.0055 1.432234,-0.07173 z"
     id="path5142"
     inkscape:connector-curvature="0" /><path
     style="fill:#666666;fill-opacity:1;stroke-width:0.04325397"
     d="m 19.210555,12.621508 c 0,-0.259523 -0.0173,-0.432539 -0.04325,-0.432539 -0.06505,0 -0.05181,-0.844581 0.01788,-1.140798 0.07333,-0.3117 0.170829,-0.449005 0.418496,-0.589361 0.187423,-0.106215 0.210208,-0.108385 1.282974,-0.122227 l 1.092163,-0.01409 v 1.365778 1.365779 h -1.384127 -1.384127 z"
     id="path5144"
     inkscape:connector-curvature="0" /><path
     style="fill:#666666;fill-opacity:1;stroke-width:0.04325397"
     d="m 26.665408,71.209965 c -0.399432,-0.07249 -0.748642,-0.26135 -1.134648,-0.613651 -0.371251,-0.338833 -0.668451,-0.742758 -0.797277,-1.083577 -0.0848,-0.224356 -0.09436,-0.33045 -0.09268,-1.028726 0.0018,-0.725855 0.0097,-0.802002 0.117415,-1.124604 0.288382,-0.863698 0.841987,-1.431333 1.650728,-1.692561 0.474257,-0.153187 1.286767,-0.191266 1.772989,-0.08309 0.529597,0.117824 0.986232,0.370175 1.366326,0.755074 0.574635,0.5819 0.798868,1.168272 0.795525,2.080302 -0.0031,0.855393 -0.200872,1.420936 -0.673444,1.926117 -0.441561,0.47203 -1.01423,0.746381 -1.807619,0.865983 -0.492658,0.07427 -0.782801,0.07396 -1.197318,-0.0013 z"
     id="path5146"
     inkscape:connector-curvature="0" /><path
     style="fill:#666666;fill-opacity:1;stroke-width:0.04325397"
     d="m 45.94985,71.230543 c -0.715308,-0.100838 -1.131383,-0.307821 -1.598347,-0.795125 -0.56853,-0.593295 -0.842617,-1.255775 -0.843144,-2.037915 -8.32e-4,-1.234221 0.784596,-2.326224 1.958395,-2.722811 0.484092,-0.163559 1.242712,-0.202354 1.75812,-0.08991 1.050856,0.229262 1.730778,0.918987 2.013968,2.043003 0.07953,0.31565 0.09563,0.498276 0.09456,1.072494 -0.0017,0.92677 -0.05138,1.062412 -0.578929,1.581687 -0.439139,0.432247 -0.949838,0.78842 -1.268644,0.88478 -0.269896,0.08158 -1.150415,0.118148 -1.535976,0.06379 z"
     id="path5148"
     inkscape:connector-curvature="0" /></svg>