<?xml version="1.0" encoding="UTF-8" standalone="no"?>
<svg
   xmlns:dc="http://purl.org/dc/elements/1.1/"
   xmlns:cc="http://creativecommons.org/ns#"
   xmlns:rdf="http://www.w3.org/1999/02/22-rdf-syntax-ns#"
   xmlns:svg="http://www.w3.org/2000/svg"
   xmlns="http://www.w3.org/2000/svg"
   xmlns:sodipodi="http://sodipodi.sourceforge.net/DTD/sodipodi-0.dtd"
   xmlns:inkscape="http://www.inkscape.org/namespaces/inkscape"
   viewBox="0 0 16 16"
   fill-rule="evenodd"
   clip-rule="evenodd"
   stroke-linejoin="round"
   stroke-miterlimit="1.414"
   version="1.1"
   id="svg5037"
   sodipodi:docname="linkedin.svg"
   inkscape:version="0.92.3 (2405546, 2018-03-11)">
  <metadata
     id="metadata5043">
    <rdf:RDF>
      <cc:Work
         rdf:about="">
        <dc:format>image/svg+xml</dc:format>
        <dc:type
           rdf:resource="http://purl.org/dc/dcmitype/StillImage" />
      </cc:Work>
    </rdf:RDF>
  </metadata>
  <defs
     id="defs5041" />
  <sodipodi:namedview
     pagecolor="#ffffff"
     bordercolor="#666666"
     borderopacity="1"
     objecttolerance="10"
     gridtolerance="10"
     guidetolerance="10"
     inkscape:pageopacity="0"
     inkscape:pageshadow="2"
     inkscape:window-width="3840"
     inkscape:window-height="2041"
     id="namedview5039"
     showgrid="false"
     inkscape:zoom="110.25"
     inkscape:cx="8"
     inkscape:cy="8"
     inkscape:window-x="0"
     inkscape:window-y="0"
     inkscape:window-maximized="1"
     inkscape:current-layer="svg5037" />
  <path
     d="M13.632 13.635h-2.37V9.922c0-.886-.018-2.025-1.234-2.025-1.235 0-1.424.964-1.424 1.96v3.778h-2.37V6H8.51v1.04h.03c.318-.6 1.092-1.233 2.247-1.233 2.4 0 2.845 1.58 2.845 3.637v4.188zM3.558 4.955c-.762 0-1.376-.617-1.376-1.377 0-.758.614-1.375 1.376-1.375.76 0 1.376.617 1.376 1.375 0 .76-.617 1.377-1.376 1.377zm1.188 8.68H2.37V6h2.376v7.635zM14.816 0H1.18C.528 0 0 .516 0 1.153v13.694C0 15.484.528 16 1.18 16h13.635c.652 0 1.185-.516 1.185-1.153V1.153C16 .516 15.467 0 14.815 0z"
     fill-rule="nonzero"
     id="path5035" />
  <path
     style="fill:#666666;fill-opacity:1;stroke-width:0.00907029"
     d="M 1.0482875,15.988144 C 0.8937785,15.970131 0.72414504,15.915397 0.59652441,15.842378 0.2998374,15.672628 0.10836786,15.414501 0.0247718,15.071576 0.00926021,15.007946 0.00841276,14.696425 0.00569001,8.0571429 0.00375948,3.3496498 0.00584094,1.0829123 0.01214511,1.0274717 0.06262572,0.58353185 0.36910438,0.21185818 0.80489673,0.06608379 0.99693279,0.00184692 0.32549485,0.0073331 8.0001724,0.00729271 14.185641,0.00726015 14.93962,0.00875123 15.01151,0.0211584 c 0.510273,0.08806475 0.904592,0.48456362 0.973321,0.97869947 0.0069,0.0492727 0.0097,2.11948603 0.0097,7.00686653 0,6.1908806 -0.0015,6.9455936 -0.0139,7.0174846 -0.05432,0.314723 -0.232037,0.589136 -0.495817,0.765575 -0.135151,0.0904 -0.259516,0.142928 -0.435613,0.183983 l -0.08415,0.01962 -6.9251697,0.0013 c -3.8088435,6.89e-4 -6.9550733,-0.0022 -6.9916218,-0.0065 z M 4.7473923,9.8167465 V 5.9935836 l -1.1904762,0.0023 -1.1904762,0.0023 -0.00228,3.8208617 -0.00228,3.8208617 H 3.5546378 4.7473923 Z M 8.6113748,11.614966 C 8.611402,10.3366 8.6148018,9.5432045 8.6206069,9.4630385 8.6482929,9.0806993 8.7180363,8.7830873 8.8332737,8.5555369 9.0382468,8.1507923 9.368595,7.9463737 9.8814494,7.9069293 c 0.3372796,-0.025941 0.6285876,0.036992 0.8443796,0.1824152 0.256537,0.1728826 0.423368,0.5025028 0.488684,0.9655308 0.039,0.2764562 0.03895,0.2734948 0.04267,2.4693877 l 0.0036,2.115646 h 1.187752 1.187751 l -1.54e-4,-2.224489 c -9.1e-5,-1.27659 -0.0039,-2.3133864 -0.0089,-2.4331071 -0.03256,-0.775918 -0.144929,-1.3632423 -0.347506,-1.81638 C 12.934781,6.3943722 12.308372,5.9584652 11.373917,5.8397239 10.690838,5.7529251 10.124192,5.8199403 9.6284463,6.0461544 9.1794068,6.2510555 8.7820092,6.6022126 8.5664462,6.9845805 8.5105193,7.0837842 8.5115646,7.0927252 8.5115646,6.5151577 V 5.9935808 l -1.1405895,0.0023 -1.1405896,0.0023 -0.00228,3.8208617 -0.00228,3.8208615 h 1.1927544 1.1927545 l 3.62e-5,-2.024943 z M 3.7088435,4.9502639 C 4.2572315,4.888297 4.7197757,4.5038373 4.8779575,3.9785144 4.9222309,3.8314819 4.9329083,3.7519023 4.9325166,3.5718821 4.932219,3.434929 4.9285398,3.3872996 4.912505,3.3127923 4.883847,3.1796288 4.8532535,3.0912932 4.7933373,2.9687075 4.6458605,2.6669764 4.3927656,2.429896 4.0844082,2.3046353 3.8867727,2.2243519 3.7295804,2.1973477 3.5047619,2.2050571 3.2796126,2.212778 3.1395471,2.2481032 2.9374185,2.3481442 2.6097851,2.5103022 2.3574936,2.8046062 2.2460442,3.1546485 2.19304,3.3211251 2.1849976,3.3777078 2.1854505,3.5809524 c 4.544e-4,0.2040236 0.011822,0.2793725 0.066988,0.444032 0.1548458,0.4621836 0.5632036,0.8177491 1.0416407,0.9069779 0.1526439,0.028468 0.2764488,0.033931 0.4147643,0.018302 z"
     id="path5045"
     inkscape:connector-curvature="0" />
</svg>
