<?xml version="1.0" encoding="UTF-8" standalone="no"?>
<svg
   xmlns:dc="http://purl.org/dc/elements/1.1/"
   xmlns:cc="http://creativecommons.org/ns#"
   xmlns:rdf="http://www.w3.org/1999/02/22-rdf-syntax-ns#"
   xmlns:svg="http://www.w3.org/2000/svg"
   xmlns="http://www.w3.org/2000/svg"
   xmlns:sodipodi="http://sodipodi.sourceforge.net/DTD/sodipodi-0.dtd"
   xmlns:inkscape="http://www.inkscape.org/namespaces/inkscape"
   viewBox="0 0 16 16"
   height="16"
   width="16"
   version="1.1"
   id="svg4962"
   sodipodi:docname="mastodon.svg"
   inkscape:version="0.92.3 (2405546, 2018-03-11)">
  <metadata
     id="metadata4968">
    <rdf:RDF>
      <cc:Work
         rdf:about="">
        <dc:format>image/svg+xml</dc:format>
        <dc:type
           rdf:resource="http://purl.org/dc/dcmitype/StillImage" />
      </cc:Work>
    </rdf:RDF>
  </metadata>
  <defs
     id="defs4966" />
  <sodipodi:namedview
     pagecolor="#ffffff"
     bordercolor="#666666"
     borderopacity="1"
     objecttolerance="10"
     gridtolerance="10"
     guidetolerance="10"
     inkscape:pageopacity="0"
     inkscape:pageshadow="2"
     inkscape:window-width="3840"
     inkscape:window-height="2041"
     id="namedview4964"
     showgrid="false"
     inkscape:zoom="110.25"
     inkscape:cx="8"
     inkscape:cy="8"
     inkscape:window-x="0"
     inkscape:window-y="0"
     inkscape:window-maximized="1"
     inkscape:current-layer="svg4962" />
  <path
     d="M8 .1A7.9 7.9 0 0 0 .1 8 7.9 7.9 0 0 0 8 15.9 7.9 7.9 0 0 0 15.9 8 7.9 7.9 0 0 0 8 .1zm-.04 4.28h1.7c-.33.23-.44.9-.44 1.25v3.2c0 .7-.55 1.24-1.26 1.24-.7 0-1.26-.55-1.26-1.25v-3.2c0-.68.55-1.24 1.26-1.24zm-4.36.78c.7 0 1.26.55 1.26 1.24v3.2c0 .34.1 1.02.43 1.24H3.6c-.7 0-1.26-.55-1.26-1.24V6.4c0-.7.55-1.24 1.26-1.24zm8.7 0c.7 0 1.26.55 1.26 1.24v3.2c0 .7-.56 1.24-1.27 1.24h-1.7c.32-.22.43-.9.43-1.24V6.4c0-.7.56-1.24 1.26-1.24z"
     fill="#000"
     id="path4960" />
  <path
     style="fill:#666666;fill-opacity:1;stroke-width:0.00907029"
     d="M 7.6816327,15.889456 C 4.7845156,15.764912 2.2062087,14.089705 0.92478278,11.49932 0.57558153,10.793414 0.34098415,10.067808 0.21217668,9.2952381 -0.14001196,7.1828598 0.38461455,5.0111159 1.6620386,3.2933897 2.8821673,1.6527074 4.6832629,0.55162854 6.7020408,0.21224295 7.352342,0.10291797 8.0745022,0.0770808 8.738322,0.13938966 c 2.101843,0.19728767 4.034834,1.22874214 5.380299,2.87095684 0.55755,0.6805193 1.010833,1.4857118 1.319472,2.3438485 0.314707,0.8750039 0.471024,1.8311061 0.453782,2.7755102 -0.0073,0.4008816 -0.03195,0.6979655 -0.08837,1.0657597 -0.364612,2.3769691 -1.788999,4.4537991 -3.876974,5.6528321 -0.926251,0.531904 -1.9604294,0.872072 -3.0249437,0.99498 -0.369216,0.04263 -0.8655193,0.06142 -1.2199546,0.04618 z m -2.3905393,-5.05 c -2.839e-4,-0.0037 -0.020016,-0.02164 -0.043848,-0.03977 C 5.1038947,10.690608 4.9709476,10.396514 4.9065597,10.046049 4.8658244,9.8243247 4.8655153,9.8092127 4.8652261,8.0253968 4.8649286,6.1907225 4.8660071,6.2334194 4.8154093,6.0536073 4.7842973,5.9430434 4.6890714,5.7532578 4.6162815,5.6567449 4.4343695,5.4155458 4.1675406,5.2483585 3.855737,5.1802098 3.7492375,5.156933 3.4505619,5.1569027 3.3414966,5.1801554 3.0811229,5.2356725 2.8690854,5.3487334 2.6929705,5.5259573 2.5208424,5.6991693 2.4162801,5.8951674 2.3596951,6.1506698 l -0.020466,0.092414 v 1.7505669 c 0,1.6578712 8.753e-4,1.7548716 0.016529,1.8318703 0.051568,0.25366 0.1624385,0.465496 0.3348325,0.639752 0.088082,0.08903 0.1544874,0.140762 0.2630689,0.204925 0.1448051,0.08557 0.3304838,0.146555 0.5057513,0.166115 0.084845,0.0095 1.8323911,0.01247 1.831683,0.0031 z m 7.1275486,-0.0024 c 0.578594,-0.06096 1.012251,-0.447584 1.124081,-1.0021794 0.01556,-0.077179 0.01646,-0.177375 0.01646,-1.8367347 0,-1.9392591 0.0042,-1.790042 -0.0557,-1.9796402 -0.0941,-0.2978851 -0.320356,-0.5663262 -0.600569,-0.7125522 -0.190903,-0.09962 -0.333503,-0.1365873 -0.556019,-0.1441406 -0.228472,-0.00776 -0.38645,0.018197 -0.567843,0.093285 -0.379794,0.1572161 -0.643852,0.4757057 -0.73864,0.890903 l -0.02008,0.087973 -0.0053,1.7913832 c -0.0052,1.7737325 -0.0055,1.7925452 -0.02467,1.9092971 -0.035,0.2130388 -0.07798,0.3775498 -0.136902,0.5239618 -0.05434,0.135045 -0.107094,0.219929 -0.189948,0.30566 -0.04115,0.04257 -0.07482,0.07843 -0.07483,0.07967 -9.1e-5,0.0072 1.759523,5.26e-4 1.82996,-0.0069 z M 8.196452,10.052941 C 8.5824028,9.9846358 8.91405,9.7423664 9.0871996,9.4022467 9.1399718,9.2985859 9.1818522,9.1753379 9.2067791,9.0503401 c 0.014018,-0.070294 0.015882,-0.2355692 0.021122,-1.8730158 0.00527,-1.6457674 0.00706,-1.8034856 0.021444,-1.8864278 0.075012,-0.432532 0.1850032,-0.6967847 0.3569923,-0.8576721 l 0.058416,-0.054646 -0.9507441,0.00297 c -0.8726355,0.00273 -0.9563331,0.0043 -1.0187715,0.019073 -0.2527433,0.059816 -0.4477607,0.164504 -0.622091,0.3339479 -0.18211,0.1770057 -0.2887029,0.3686897 -0.3546507,0.6377615 -0.014375,0.05865 -0.015782,0.1966253 -0.018457,1.8093662 -0.00282,1.7019075 -0.00245,1.7485048 0.014952,1.8503401 0.094373,0.5524107 0.5286008,0.9626946 1.0946117,1.0342549 0.085409,0.0108 0.290355,0.0037 0.3868486,-0.01336 z"
     id="path4970"
     inkscape:connector-curvature="0" />
</svg>
