<?xml version="1.0" encoding="UTF-8" standalone="no"?>
<svg
   xmlns:dc="http://purl.org/dc/elements/1.1/"
   xmlns:cc="http://creativecommons.org/ns#"
   xmlns:rdf="http://www.w3.org/1999/02/22-rdf-syntax-ns#"
   xmlns:svg="http://www.w3.org/2000/svg"
   xmlns="http://www.w3.org/2000/svg"
   xmlns:sodipodi="http://sodipodi.sourceforge.net/DTD/sodipodi-0.dtd"
   xmlns:inkscape="http://www.inkscape.org/namespaces/inkscape"
   viewBox="0 0 16 16"
   fill-rule="evenodd"
   clip-rule="evenodd"
   stroke-linejoin="round"
   stroke-miterlimit="1.414"
   version="1.1"
   id="svg4850"
   sodipodi:docname="rss.svg"
   inkscape:version="0.92.3 (2405546, 2018-03-11)">
  <metadata
     id="metadata4856">
    <rdf:RDF>
      <cc:Work
         rdf:about="">
        <dc:format>image/svg+xml</dc:format>
        <dc:type
           rdf:resource="http://purl.org/dc/dcmitype/StillImage" />
      </cc:Work>
    </rdf:RDF>
  </metadata>
  <defs
     id="defs4854" />
  <sodipodi:namedview
     pagecolor="#ffffff"
     bordercolor="#666666"
     borderopacity="1"
     objecttolerance="10"
     gridtolerance="10"
     guidetolerance="10"
     inkscape:pageopacity="0"
     inkscape:pageshadow="2"
     inkscape:window-width="3840"
     inkscape:window-height="2041"
     id="namedview4852"
     showgrid="false"
     inkscape:zoom="110.25"
     inkscape:cx="8"
     inkscape:cy="8"
     inkscape:window-x="0"
     inkscape:window-y="0"
     inkscape:window-maximized="1"
     inkscape:current-layer="svg4850" />
  <path
     d="M12.8 16C12.8 8.978 7.022 3.2 0 3.2V0c8.777 0 16 7.223 16 16h-3.2zM2.194 11.61c1.21 0 2.195.985 2.195 2.196 0 1.21-.99 2.194-2.2 2.194C.98 16 0 15.017 0 13.806c0-1.21.983-2.195 2.194-2.195zM10.606 16h-3.11c0-4.113-3.383-7.497-7.496-7.497v-3.11c5.818 0 10.606 4.79 10.606 10.607z"
     id="path4848" />
  <path
     style="fill:#666666;fill-opacity:1;stroke-width:0.00907029"
     d="m 12.801721,15.832653 c -1.73e-4,-0.302616 -0.02556,-0.749725 -0.06375,-1.122449 -0.243902,-2.380716 -1.15481,-4.639209 -2.63945,-6.5442176 C 9.4840726,7.3775596 8.7532762,6.6371771 7.9673469,6.006856 7.0456962,5.2676854 5.997142,4.6434023 4.9061224,4.1842793 3.4525451,3.5725847 1.8524809,3.2305954 0.31428571,3.2028443 l -0.31065759,-0.0056 V 1.6022479 0.00725624 l 0.19727891,2.061e-5 C 1.0210232,0.00736255 2.0638496,0.11185105 2.9696145,0.28469414 7.3276447,1.1163177 11.186072,3.7726201 13.574422,7.5854875 c 1.527719,2.4389175 2.362182,5.2374725 2.417193,8.1065755 l 0.0059,0.306123 H 14.39968 12.801845 l -9.1e-5,-0.165533 z"
     id="path4858"
     inkscape:connector-curvature="0" />
  <path
     style="fill:#666666;fill-opacity:1;stroke-width:0.00907029"
     d="M 7.4929976,15.764626 C 7.471102,14.811514 7.2429042,13.829158 6.8340346,12.927891 5.9790148,11.043181 4.3573427,9.5680545 2.4068747,8.9008014 1.684899,8.6538141 0.99256254,8.5292957 0.18276644,8.5007898 L 0.00362812,8.4944838 V 6.9435928 5.3927019 l 0.20181406,0.00606 c 0.26758039,0.00804 0.50225845,0.020695 0.69614512,0.03754 1.7749463,0.1542121 3.4540769,0.7464009 4.952381,1.7465851 1.7784449,1.1871907 3.1753129,2.899258 3.9784843,4.876218 0.4733844,1.16521 0.7381974,2.436314 0.7625334,3.660165 l 0.0055,0.278912 H 9.0494477 7.4983631 Z"
     id="path4860"
     inkscape:connector-curvature="0" />
  <path
     style="fill:#666666;fill-opacity:1;stroke-width:0.00907029"
     d="M 2.0535147,15.992621 C 1.2679492,15.937242 0.58013267,15.477946 0.23490999,14.778231 0.12521658,14.555899 0.06245553,14.35743 0.02552637,14.1161 0.0026442,13.966566 0.00223391,13.65115 0.02472997,13.503855 c 0.03674582,-0.240597 0.1034202,-0.454339 0.20650018,-0.66199 0.32192149,-0.6485 0.92344935,-1.090611 1.63634355,-1.202678 0.1268364,-0.01994 0.4230875,-0.02711 0.5505227,-0.01332 1.3242184,0.143254 2.218328,1.414208 1.9018191,2.703386 -0.2145677,0.873959 -0.9669189,1.539101 -1.8666955,1.650316 -0.086057,0.01064 -0.3238293,0.0184 -0.3997053,0.01305 z"
     id="path4862"
     inkscape:connector-curvature="0" />
</svg>
