<?xml version="1.0" encoding="UTF-8" standalone="no"?>
<svg
   xmlns:dc="http://purl.org/dc/elements/1.1/"
   xmlns:cc="http://creativecommons.org/ns#"
   xmlns:rdf="http://www.w3.org/1999/02/22-rdf-syntax-ns#"
   xmlns:svg="http://www.w3.org/2000/svg"
   xmlns="http://www.w3.org/2000/svg"
   xmlns:sodipodi="http://sodipodi.sourceforge.net/DTD/sodipodi-0.dtd"
   xmlns:inkscape="http://www.inkscape.org/namespaces/inkscape"
   viewBox="0 0 16 16"
   fill-rule="evenodd"
   clip-rule="evenodd"
   stroke-linejoin="round"
   stroke-miterlimit="1.414"
   version="1.1"
   id="svg4756"
   sodipodi:docname="soundcloud.svg"
   inkscape:version="0.92.3 (2405546, 2018-03-11)">
  <metadata
     id="metadata4762">
    <rdf:RDF>
      <cc:Work
         rdf:about="">
        <dc:format>image/svg+xml</dc:format>
        <dc:type
           rdf:resource="http://purl.org/dc/dcmitype/StillImage" />
      </cc:Work>
    </rdf:RDF>
  </metadata>
  <defs
     id="defs4760" />
  <sodipodi:namedview
     pagecolor="#ffffff"
     bordercolor="#666666"
     borderopacity="1"
     objecttolerance="10"
     gridtolerance="10"
     guidetolerance="10"
     inkscape:pageopacity="0"
     inkscape:pageshadow="2"
     inkscape:window-width="3840"
     inkscape:window-height="2041"
     id="namedview4758"
     showgrid="false"
     inkscape:zoom="110.25"
     inkscape:cx="8"
     inkscape:cy="8"
     inkscape:window-x="0"
     inkscape:window-y="0"
     inkscape:window-maximized="1"
     inkscape:current-layer="svg4756" />
  <path
     d="M.773 8.13c-.034 0-.062.03-.067.066L.55 9.633l.156 1.405c.005.038.033.065.067.065.033 0 .06-.027.066-.065l.17-1.405-.18-1.437c0-.038-.03-.066-.06-.066m-.6.552c-.04 0-.06.025-.07.062l-.11.89.11.872c0 .037.03.063.06.063s.06-.03.07-.07l.14-.88-.14-.89c0-.04-.03-.06-.06-.06m1.22-.82c-.04 0-.08.03-.08.07l-.14 1.71.15 1.64c0 .04.03.08.08.08.04 0 .07-.04.08-.08l.17-1.65-.17-1.7c-.01-.04-.04-.08-.08-.08m.63-.06c-.05 0-.09.04-.1.09L1.8 9.63l.14 1.697c.01.052.05.092.1.092s.09-.04.1-.1l.16-1.69-.16-1.75c0-.05-.04-.09-.09-.09m.75 3.56zm0-3.33c-.003-.06-.05-.1-.106-.1-.06 0-.106.04-.11.1L2.44 9.64l.133 1.71c0 .06.05.105.106.105.05 0 .1-.046.1-.106l.15-1.71-.15-1.63zm.54-1.14c-.067 0-.12.06-.12.12l-.14 2.64.124 1.71c0 .06.054.11.12.11.063 0 .116-.06.12-.12l.14-1.71-.14-2.65c-.005-.07-.058-.12-.12-.12m.64-.61c-.07 0-.13.06-.135.13l-.12 3.25.11 1.7c0 .08.06.14.13.14s.13-.06.14-.14l.13-1.7-.13-3.24c-.01-.08-.07-.14-.14-.14m.66-.3c-.08 0-.14.06-.15.14l-.11 3.52.11 1.68c.01.08.07.15.15.15.08 0 .15-.07.15-.15l.13-1.68-.13-3.52c0-.08-.07-.15-.15-.15m.83.03c0-.09-.07-.16-.16-.16-.08 0-.16.07-.16.16l-.1 3.63.1 1.67c.01.09.08.16.17.16.09 0 .16-.07.16-.16l.11-1.67-.11-3.64zm0 5.3zm.5-5.39c-.09 0-.17.08-.17.17l-.1 3.55.1 1.65c0 .1.08.17.17.17.09 0 .17-.08.17-.18l.1-1.65-.11-3.54c0-.1-.08-.18-.18-.18m.67.11c-.11 0-.19.09-.19.19L6.33 9.6l.09 1.65c0 .1.08.185.19.185.1 0 .18-.08.19-.19l.08-1.63-.09-3.41c-.008-.11-.09-.19-.19-.19m.79-.63c-.03-.02-.07-.03-.11-.03-.04 0-.08.01-.11.03-.06.036-.1.1-.1.17v.04L7 9.63l.077 1.634v.005c.005.04.02.09.05.12.038.04.094.07.156.07.054 0 .105-.03.14-.06.038-.04.06-.09.06-.15l.01-.16.078-1.47-.09-4.06c0-.07-.04-.13-.09-.16m.09 5.87zm.58-6.25c-.03-.03-.06-.04-.1-.04-.05 0-.1.01-.14.04-.05.04-.08.1-.08.16v.02l-.09 4.41.05.81.04.79c0 .11.1.21.22.21s.22-.1.22-.22l.1-1.61-.1-4.428c0-.08-.05-.147-.11-.185m5.96 2.52c-.27 0-.53.057-.76.155-.16-1.77-1.64-3.16-3.46-3.16-.44 0-.87.09-1.26.24-.15.06-.18.12-.19.24v6.25c.01.12.1.22.22.23h5.46c1.08.01 1.96-.86 1.96-1.95s-.88-1.97-1.96-1.97"
     fill-rule="nonzero"
     id="path4754" />
  <path
     style="fill:#666666;fill-opacity:1;stroke-width:0.00907029"
     d="M 8.5225856,11.433499 C 8.4821715,11.420549 8.415435,11.360215 8.391004,11.314542 L 8.370975,11.277102 8.368225,8.1161038 C 8.366185,5.776596 8.3681596,4.9425823 8.375805,4.9069163 8.394121,4.8214813 8.448479,4.7755627 8.598079,4.7191481 8.8441298,4.6263621 9.1212303,4.5581568 9.4095232,4.5194198 c 0.1465403,-0.01969 0.4911453,-0.027132 0.6586838,-0.014224 0.708821,0.054609 1.349983,0.3060278 1.908209,0.7482665 0.138452,0.1096842 0.430734,0.4004543 0.5389,0.5361113 0.400381,0.5021394 0.657726,1.1085633 0.736676,1.7359475 0.0085,0.067905 0.0165,0.1247928 0.01768,0.1264183 0.0012,0.00163 0.04133,-0.011721 0.08922,-0.029658 0.171514,-0.064239 0.371739,-0.1058139 0.574938,-0.1193794 0.09051,-0.00604 0.09363,-0.00562 0.09856,0.013232 0.0044,0.016812 0.01163,0.019472 0.05296,0.019472 0.02633,0 0.09014,0.00424 0.141799,0.00942 1.005206,0.1008464 1.767401,0.9427131 1.767401,1.9521472 0,0.6645248 -0.323244,1.2675478 -0.875284,1.6328748 -0.175101,0.115876 -0.433561,0.224992 -0.639455,0.269959 -0.215058,0.04697 -0.07326,0.04496 -3.109309,0.04397 -1.9452597,-6.39e-4 -2.8273573,-0.0039 -2.847924,-0.01047 z"
     id="path4764"
     inkscape:connector-curvature="0" />
  <path
     style="fill:#666666;fill-opacity:1;stroke-width:0.00907029"
     d="M 7.9159363,11.408986 C 7.8478348,11.392765 7.7817353,11.336778 7.7577032,11.274961 7.7523418,11.26117 7.7383438,11.064172 7.7265964,10.837188 7.714849,10.610204 7.6940358,10.240476 7.6803448,10.01557 L 7.655452,9.6066511 7.7010539,7.3715795 c 0.045197,-2.2152401 0.045773,-2.2354034 0.064844,-2.272473 0.023831,-0.046322 0.065084,-0.08609 0.103917,-0.1001757 0.049084,-0.017804 0.1319099,-0.014739 0.1656795,0.00613 l 0.029472,0.018215 0.00567,-0.020482 c 0.00539,-0.019461 0.00766,-0.018402 0.04562,0.021218 0.022716,0.023709 0.044203,0.056972 0.049804,0.077097 0.00627,0.022515 0.028253,0.8441461 0.060414,2.2576194 l 0.050562,2.2222222 -0.051374,0.8299316 c -0.057092,0.922301 -0.052039,0.883328 -0.1228027,0.947258 -0.019441,0.01756 -0.055527,0.03751 -0.082195,0.04543 -0.05146,0.01528 -0.061193,0.01578 -0.1047266,0.0054 z"
     id="path4766"
     inkscape:connector-curvature="0" />
  <path
     style="fill:#666666;fill-opacity:1;stroke-width:0.00907029"
     d="M 7.2164632,11.442569 C 7.1635067,11.4256 7.1073575,11.367629 7.0928157,11.31491 7.0836557,11.28171 7.0687677,11.023255 7.0417817,10.429025 L 7.0036795,9.5900227 7.0396721,7.551807 7.0756647,5.5135914 7.0978496,5.4701744 c 0.041799,-0.081804 0.1442471,-0.1272365 0.2332397,-0.1034346 0.048491,0.012969 0.1120394,0.076083 0.1323062,0.1314013 0.011567,0.031572 0.02077,0.3596693 0.05855,2.0873464 l 0.044826,2.0498866 -0.030619,0.5714289 c -0.058318,1.088358 -0.058063,1.084601 -0.076764,1.126879 -0.041453,0.09371 -0.1451828,0.140207 -0.2429253,0.108887 z"
     id="path4768"
     inkscape:connector-curvature="0" />
  <path
     style="fill:#666666;fill-opacity:1;stroke-width:0.00907029"
     d="m 6.5297052,11.412494 c -0.041395,-0.02153 -0.068789,-0.04998 -0.086927,-0.09028 -0.014236,-0.03163 -0.022634,-0.150602 -0.062751,-0.888889 L 6.3337118,9.5809524 6.3690204,7.8530612 c 0.034583,-1.692378 0.035693,-1.7286368 0.05403,-1.7641723 0.023294,-0.045143 0.051744,-0.072134 0.095149,-0.09027 0.044488,-0.018588 0.067383,-0.017722 0.072737,0.00275 0.00297,0.011346 0.01604,0.018652 0.040324,0.022535 0.067562,0.010804 0.12906,0.069829 0.1470975,0.1411842 0.00454,0.017954 0.028285,0.8040722 0.05277,1.7469293 l 0.044518,1.7142858 -0.038331,0.7800448 c -0.021082,0.429025 -0.040303,0.80279 -0.042712,0.830589 -0.00708,0.08172 -0.056316,0.15683 -0.1180952,0.180172 -0.037386,0.01412 -0.1154885,0.01167 -0.1468018,-0.0046 z"
     id="path4770"
     inkscape:connector-curvature="0" />
  <path
     style="fill:#666666;fill-opacity:1;stroke-width:0.00907029"
     d="m 5.8868459,11.404362 c -0.048686,-0.01735 -0.092557,-0.06264 -0.1043751,-0.10773 -0.00543,-0.02072 -0.03229,-0.411144 -0.059689,-0.867607 l -0.049815,-0.829932 0.04952,-1.7687075 c 0.027236,-0.9727891 0.052032,-1.7870346 0.055102,-1.8094344 0.00809,-0.059051 0.071207,-0.120789 0.1379911,-0.1349845 0.04243,-0.00902 0.052113,-0.00811 0.083375,0.00784 0.034534,0.017618 0.071895,0.05891 0.086236,0.095309 0.00393,0.00998 0.032432,0.8241183 0.063336,1.809202 l 0.056189,1.7910615 -0.051448,0.8490679 c -0.049705,0.820309 -0.052153,0.850323 -0.072282,0.886137 -0.023402,0.04164 -0.053614,0.06678 -0.099118,0.08247 -0.03856,0.0133 -0.051161,0.01294 -0.095021,-0.0027 z"
     id="path4772"
     inkscape:connector-curvature="0" />
  <path
     style="fill:#666666;fill-opacity:1;stroke-width:0.00907029"
     d="m 5.2443661,11.417792 c -0.04078,-0.01229 -0.07904,-0.04483 -0.099667,-0.08477 -0.018305,-0.03544 -0.022678,-0.09041 -0.070464,-0.885719 L 5.0232868,9.5993697 5.0713617,7.7987779 c 0.026441,-0.9903256 0.051895,-1.8219747 0.056564,-1.8481092 0.00947,-0.052991 0.027559,-0.081766 0.069568,-0.1106449 0.06055,-0.041625 0.1502148,-0.028997 0.1980883,0.027898 0.049742,0.059115 0.046107,-0.00772 0.1047144,1.9250663 l 0.054699,1.8038722 -0.054669,0.8401187 c -0.030068,0.462065 -0.058716,0.854872 -0.063662,0.872904 -0.023073,0.08412 -0.1097901,0.132781 -0.1922983,0.107909 z"
     id="path4774"
     inkscape:connector-curvature="0" />
  <path
     style="fill:#666666;fill-opacity:1;stroke-width:0.00907029"
     d="M 4.552381,11.417732 C 4.5058148,11.394524 4.477467,11.352212 4.46691,11.290157 4.4622934,11.26302 4.4348674,10.873784 4.4059634,10.425188 L 4.3534106,9.6095605 4.4085815,7.8399372 c 0.053772,-1.724765 0.055655,-1.7705717 0.07426,-1.8070408 0.021072,-0.041305 0.068135,-0.075527 0.1038679,-0.075527 0.012714,0 0.024477,-0.00374 0.02614,-0.00831 0.00169,-0.00465 0.018999,-0.00286 0.039305,0.00407 0.0487,0.016615 0.093054,0.06853 0.099454,0.1164071 0.00276,0.020624 0.033877,0.8258749 0.069157,1.7894462 l 0.064144,1.751948 -0.06436,0.8376213 c -0.035398,0.460691 -0.066541,0.850973 -0.069206,0.867293 -0.00916,0.05607 -0.084812,0.12 -0.1419812,0.11998 -0.011385,-3e-6 -0.037026,-0.0081 -0.056981,-0.01809 z"
     id="path4776"
     inkscape:connector-curvature="0" />
  <path
     style="fill:#666666;fill-opacity:1;stroke-width:0.00907029"
     d="m 3.8847881,11.442511 c -0.059771,-0.03981 -0.055632,-0.006 -0.1161945,-0.94886 l -0.055567,-0.86508 0.060034,-1.6292515 c 0.054495,-1.4789306 0.061568,-1.6327858 0.076656,-1.6675583 0.04421,-0.1018865 0.1637361,-0.097888 0.2176806,0.00728 0.015183,0.0296 0.022424,0.1762311 0.082012,1.6605641 l 0.065358,1.6280971 -0.065166,0.8564426 c -0.060128,0.790237 -0.066712,0.859597 -0.085162,0.897246 -0.037594,0.07671 -0.1161264,0.10343 -0.1796525,0.06112 z"
     id="path4778"
     inkscape:connector-curvature="0" />
  <path
     style="fill:#666666;fill-opacity:1;stroke-width:0.00907029"
     d="m 3.2615857,11.436126 c -0.016513,-0.01036 -0.035331,-0.03201 -0.041818,-0.04812 -0.00749,-0.01859 -0.034363,-0.343809 -0.073624,-0.890958 L 3.0843142,9.6353741 3.15478,8.3072468 c 0.038756,-0.73047 0.073762,-1.3365924 0.077792,-1.3469387 0.00995,-0.025561 0.054016,-0.065159 0.081714,-0.073437 0.012472,-0.00373 0.025322,-0.010898 0.028556,-0.015934 0.011799,-0.018375 0.069344,0.028689 0.083943,0.068654 0.01089,0.029811 0.029203,0.3288315 0.083488,1.3632066 L 3.579811,9.627817 3.510087,10.484204 c -0.038348,0.471013 -0.073696,0.868979 -0.07855,0.884369 -0.022538,0.07145 -0.108975,0.105809 -0.1699509,0.06755 z"
     id="path4780"
     inkscape:connector-curvature="0" />
  <path
     style="fill:#666666;fill-opacity:1;stroke-width:0.00907029"
     d="m 2.6368682,11.440692 c -0.01589,-0.0069 -0.03544,-0.02523 -0.043444,-0.04071 -0.01138,-0.02201 -0.029247,-0.21695 -0.08196,-0.894245 L 2.4440559,9.6396377 2.5163834,8.8271966 c 0.03978,-0.4468426 0.074803,-0.8223038 0.077828,-0.8343581 0.00912,-0.036348 0.053868,-0.067215 0.097437,-0.067215 0.043728,0 0.072735,0.017119 0.091942,0.054261 0.010026,0.019388 0.010666,0.026867 0.00253,0.029579 -0.00817,0.00272 0.00782,0.208713 0.063921,0.8238402 l 0.074809,0.8202108 -0.07653,0.8642215 C 2.7650644,11.457913 2.7713444,11.41578 2.710695,11.44112 2.673768,11.45655 2.673319,11.45655 2.636866,11.440692 Z"
     id="path4782"
     inkscape:connector-curvature="0" />
  <path
     style="fill:#666666;fill-opacity:1;stroke-width:0.00907029"
     d="m 2.0008897,11.402514 c -0.016472,-0.0081 -0.03572,-0.02592 -0.042773,-0.03956 -0.013196,-0.02552 -0.1495519,-1.6123379 -0.1494513,-1.7392126 2.66e-5,-0.033512 0.028355,-0.4453966 0.062951,-0.9152997 0.068177,-0.9260011 0.062887,-0.885628 0.1199138,-0.915118 0.04566,-0.023611 0.1271331,0.012806 0.139278,0.062255 0.00272,0.011087 0.040975,0.4147181 0.085005,0.8969592 l 0.080054,0.8768022 -0.080595,0.8502129 c -0.057853,0.610305 -0.084565,0.85858 -0.094666,0.879866 -0.00793,0.01671 -0.027229,0.0359 -0.04422,0.04396 -0.036853,0.01749 -0.038287,0.01747 -0.075497,-8.66e-4 z"
     id="path4784"
     inkscape:connector-curvature="0" />
  <path
     style="fill:#666666;fill-opacity:1;stroke-width:0.00907029"
     d="M 1.350422,11.324625 1.32659,11.304125 1.249897,10.474284 1.173204,9.6444434 1.242598,8.7782303 C 1.318994,7.8246102 1.311275,7.877361 1.3776769,7.8551362 c 0.02917,-0.00976 0.037672,-0.00942 0.055504,0.00227 0.011581,0.00759 0.025471,0.022044 0.030865,0.032124 0.00539,0.01008 0.048319,0.4029524 0.095387,0.87305 l 0.085578,0.8547226 -0.085184,0.8265072 c -0.062399,0.605437 -0.089066,0.834015 -0.099697,0.854573 -0.025829,0.04995 -0.069895,0.06049 -0.109708,0.02624 z"
     id="path4786"
     inkscape:connector-curvature="0" />
  <path
     style="fill:#666666;fill-opacity:1;stroke-width:0.00907029"
     d="m 0.74523595,11.090492 c -0.008669,-0.005 -0.0196974,-0.01654 -0.0245076,-0.02552 -0.00481,-0.009 -0.0441976,-0.335283 -0.0875276,-0.725101 L 0.55441892,9.6311091 0.63291915,8.9080583 c 0.0561864,-0.5175219 0.0823564,-0.7289361 0.0920663,-0.7437552 0.0197335,-0.030117 0.0560301,-0.036752 0.0784431,-0.014339 0.0160176,0.016018 0.0286726,0.1024273 0.10977921,0.7495846 l 0.0916745,0.73148 -0.084006,0.7005853 c -0.0462033,0.385322 -0.0883718,0.711966 -0.0937078,0.725876 -0.014798,0.03857 -0.0488361,0.05228 -0.0819325,0.033 z"
     id="path4788"
     inkscape:connector-curvature="0" />
  <path
     style="fill:#666666;fill-opacity:1;stroke-width:0.00907029"
     d="m 0.12154195,10.546939 c -0.009977,-0.01 -0.0181406,-0.02247 -0.0181406,-0.02776 0,-0.0053 -0.02473119,-0.207012 -0.05495821,-0.44827 l -0.0549582,-0.43865 0.0550907,-0.447422 C 0.09256928,8.8275403 0.10697394,8.732928 0.1200868,8.7151396 c 0.0206314,-0.027988 0.0716744,-0.042944 0.0885608,-0.02595 0.00714,0.00719 0.0406232,0.1949392 0.0840511,0.4713098 l 0.0721832,0.459366 -0.0708535,0.4442556 c -0.0389694,0.24434 -0.0754471,0.452838 -0.0810615,0.463328 -0.0209056,0.03906 -0.0628999,0.04801 -0.0914249,0.01949 z"
     id="path4790"
     inkscape:connector-curvature="0" />
</svg>
