<?xml version="1.0" encoding="UTF-8" standalone="no"?>
<svg
   xmlns:dc="http://purl.org/dc/elements/1.1/"
   xmlns:cc="http://creativecommons.org/ns#"
   xmlns:rdf="http://www.w3.org/1999/02/22-rdf-syntax-ns#"
   xmlns:svg="http://www.w3.org/2000/svg"
   xmlns="http://www.w3.org/2000/svg"
   xmlns:sodipodi="http://sodipodi.sourceforge.net/DTD/sodipodi-0.dtd"
   xmlns:inkscape="http://www.inkscape.org/namespaces/inkscape"
   enable-background="new 0 0 26.649 26.649"
   version="1.1"
   viewBox="0 0 26.649 26.649"
   xml:space="preserve"
   id="svg4688"
   sodipodi:docname="telegram.svg"
   inkscape:version="0.92.3 (2405546, 2018-03-11)"><metadata
     id="metadata4694"><rdf:RDF><cc:Work
         rdf:about=""><dc:format>image/svg+xml</dc:format><dc:type
           rdf:resource="http://purl.org/dc/dcmitype/StillImage" /></cc:Work></rdf:RDF></metadata><defs
     id="defs4692" /><sodipodi:namedview
     pagecolor="#ffffff"
     bordercolor="#666666"
     borderopacity="1"
     objecttolerance="10"
     gridtolerance="10"
     guidetolerance="10"
     inkscape:pageopacity="0"
     inkscape:pageshadow="2"
     inkscape:window-width="3840"
     inkscape:window-height="2041"
     id="namedview4690"
     showgrid="false"
     inkscape:zoom="66.193853"
     inkscape:cx="13.3245"
     inkscape:cy="13.3245"
     inkscape:window-x="0"
     inkscape:window-y="0"
     inkscape:window-maximized="1"
     inkscape:current-layer="svg4688" /><path
     d="m26.157 1.238c-0.434-0.567-1.107-0.892-1.847-0.892-0.478 0-0.973 0.133-1.472 0.395l-21.245 11.139c-1.51 0.793-1.615 1.987-1.59 2.463 0.024 0.479 0.255 1.654 1.839 2.283l2.715 1.074c0.515 0.204 1.091 0.309 1.711 0.309 0.098 0 0.192-0.013 0.289-0.018-0.037 0.048-0.082 0.085-0.116 0.135-0.506 0.757-0.531 1.783-0.073 2.888 7e-3 0.019 0.014 0.035 0.021 0.051 0.803 1.779 1.696 3.787 1.804 4.066 0.266 0.694 0.944 1.172 1.688 1.172 1.146 0 1.486-0.552 3.361-3.604 0.146-0.224 0.471-0.744 0.526-1.406 0.219 0.089 0.425 0.171 0.601 0.242l3.008 1.226c0.603 0.246 1.131 0.463 1.409 0.578 0.086 0.053 0.177 0.098 0.272 0.137 0.212 0.084 0.438 0.127 0.665 0.127 1.368 0 1.696-1.185 1.872-1.82 0.087-0.314 0.207-0.749 0.336-1.229l4.588-16.858c0.346-1.273-0.079-2.086-0.362-2.458zm-14.43 20.501s-1.702 2.771-1.847 2.771c-4e-3 0-6e-3 -2e-3 -8e-3 -6e-3 -0.167-0.449-1.849-4.176-1.849-4.176-0.31-0.747-0.254-1.387 0.279-1.387 0.117 0 0.257 0.031 0.421 0.099l1.306 0.679c0.218 0.149 0.456 0.278 0.718 0.381l0.066 0.025 0.123 0.062c1.009 0.534 1.33 0.727 0.791 1.552zm13.062-18.515-4.586 16.858c-0.259 0.95-0.475 1.727-0.479 1.727-4e-3 -2e-3 -9e-3 -0.02-9e-3 -0.023 0-6e-3 -0.748-0.312-1.662-0.686l-3.01-1.226c-0.914-0.37-2.413-0.969-3.332-1.323l-0.152-0.061-0.562-0.292c-0.557-0.427-0.606-1.131-0.046-1.728l9.312-9.971c0.374-0.399 0.515-0.605 0.434-0.605-0.064 0-0.271 0.133-0.617 0.404l-11.782 9.294c-0.514 0.401-1.295 0.625-2.029 0.625-0.376 0-0.741-0.06-1.052-0.183l-2.713-1.073c-0.917-0.363-0.952-1.033-0.079-1.493l21.247-11.141c0.245-0.128 0.46-0.188 0.638-0.188 0.457 0 0.665 0.4 0.479 1.085z"
     fill="#010002"
     id="path4686" /><path
     style="fill:#666666;fill-opacity:1;stroke-width:0.01510714"
     d="M 9.7048286,26.289103 C 9.2673987,26.23338 8.9219377,26.062459 8.6095608,25.747206 8.4167673,25.552639 8.3179693,25.403827 8.2054287,25.138496 7.9772234,24.600467 7.4884497,23.495443 6.8040818,21.970318 6.5729174,21.455164 6.3636394,20.982689 6.3390196,20.920372 6.2264153,20.635353 6.1359303,20.305079 6.0844775,19.991282 c -0.037447,-0.228377 -0.0378,-0.725523 -6.602e-4,-0.929089 0.070734,-0.387696 0.2217174,-0.75328 0.4042777,-0.978904 L 6.558551,17.996209 6.2244127,17.99565 C 5.8097287,17.994959 5.5212896,17.962845 5.1488477,17.875915 4.9172684,17.821863 4.6936976,17.745442 4.221221,17.558834 2.7623796,16.982649 1.8249315,16.610184 1.71315,16.562329 1.065739,16.285165 0.55586459,15.836396 0.2795231,15.300514 0.01499715,14.787546 -0.05584216,14.250459 0.06930762,13.706711 0.23679974,12.978994 0.73235826,12.369491 1.5092036,11.935736 1.8383968,11.75193 22.947534,0.69320819 23.089757,0.63004705 c 0.214269,-0.0951564 0.452432,-0.17277243 0.679822,-0.22155093 0.173753,-0.0372728 0.216597,-0.0405152 0.536303,-0.0405872 0.328389,-7.402e-5 0.357417,0.002261 0.52875,0.0425329 0.295455,0.0694466 0.546814,0.17711482 0.793125,0.33972936 0.171472,0.11320637 0.481686,0.42276122 0.592601,0.59134312 0.38405,0.5837272 0.506862,1.2919808 0.357975,2.0644326 -0.02622,0.1360469 -4.791676,17.6753491 -5.013181,18.4510671 -0.04864,0.170333 -0.124138,0.400003 -0.167777,0.510377 -0.283235,0.716373 -0.729797,1.107963 -1.374304,1.205123 -0.391636,0.05904 -0.769256,-5.14e-4 -1.111235,-0.175249 -0.142288,-0.0727 -0.875003,-0.3757 -3.232132,-1.336573 -1.617965,-0.659555 -1.91022,-0.776259 -1.916534,-0.765323 -0.0033,0.0056 -0.01081,0.05782 -0.01681,0.115985 -0.03353,0.325332 -0.203485,0.782776 -0.426564,1.148143 -1.357249,2.222949 -1.863902,2.960365 -2.287883,3.329934 -0.07259,0.06328 -0.186652,0.148094 -0.253471,0.188487 -0.133255,0.08056 -0.36141,0.164822 -0.514651,0.190079 -0.108289,0.01785 -0.4756509,0.03172 -0.5589644,0.02111 z M 9.9492104,24.45922 c 0.1666576,-0.174451 0.6972766,-0.973189 1.4911006,-2.244544 0.424133,-0.679273 0.455046,-0.733483 0.506984,-0.889075 0.107706,-0.322648 0.01183,-0.528288 -0.361627,-0.775604 -0.214688,-0.142176 -0.66442,-0.387066 -0.859507,-0.468025 -0.207905,-0.08628 -0.40754,-0.188392 -0.589511,-0.30154 -0.2085118,-0.129651 -1.3955195,-0.74376 -1.5266972,-0.789848 -0.1467863,-0.05157 -0.3863869,-0.0646 -0.4863103,-0.02644 -0.09025,0.03447 -0.1795295,0.115593 -0.2232225,0.202839 -0.058223,0.116258 -0.073553,0.214219 -0.064874,0.414543 0.015195,0.350711 0.058683,0.474819 0.551191,1.573005 0.7403011,1.650714 1.4238411,3.194906 1.4238411,3.216613 0,0.02087 0.061559,0.144727 0.071933,0.144727 0.00692,0 0.036932,-0.02549 0.066699,-0.05665 z m 9.8691536,-2.953447 c 0.284598,-1.010311 4.978574,-18.2799336 5.010085,-18.4326141 0.03138,-0.1520662 0.03781,-0.4130137 0.01283,-0.521341 -0.0237,-0.1028314 -0.08977,-0.2248503 -0.152337,-0.281379 C 24.513394,2.1118408 24.282786,2.0916009 23.941338,2.204823 23.831837,2.2411329 21.308621,3.5578162 13.058644,7.8837092 7.151566,10.981098 2.2673404,13.550694 2.2048091,13.593922 c -0.1530364,0.105794 -0.2950846,0.259311 -0.3577832,0.38667 -0.046293,0.09403 -0.050787,0.115247 -0.050787,0.239762 0,0.12417 0.00456,0.145868 0.050149,0.238466 0.065636,0.133326 0.201414,0.267818 0.373264,0.369729 0.086372,0.05122 0.3220976,0.15405 0.663509,0.289439 1.8768655,0.744284 2.418269,0.955518 2.5387924,0.990536 0.7388657,0.214681 1.715002,0.115487 2.4518861,-0.249157 0.1138342,-0.05633 0.2597717,-0.140318 0.3243058,-0.186641 0.064534,-0.04632 0.5200146,-0.401935 1.0121786,-0.790249 C 15.969983,9.5491581 20.124607,6.2739007 20.264722,6.1678501 c 0.18184,-0.1376325 0.385076,-0.2639786 0.424625,-0.2639786 0.02323,0 0.02488,0.00612 0.0118,0.043649 -0.03139,0.09005 -0.293892,0.3859459 -1.261273,1.4217442 -2.169526,2.3229623 -7.00832,7.5041963 -7.770214,8.3201093 -0.444029,0.475514 -0.837398,0.907163 -0.874153,0.95922 -0.363579,0.514968 -0.315688,1.106919 0.120625,1.490977 0.14085,0.123981 0.586381,0.335515 1.281373,0.608384 1.189093,0.466865 2.578994,1.025141 4.445496,1.785603 2.515302,1.024799 3.054368,1.247448 3.060236,1.263963 0.01488,0.04187 0.03679,-0.01365 0.115125,-0.291748 z"
     id="path4696"
     inkscape:connector-curvature="0" /></svg>