<?xml version="1.0" encoding="UTF-8" standalone="no"?>
<svg
   xmlns:dc="http://purl.org/dc/elements/1.1/"
   xmlns:cc="http://creativecommons.org/ns#"
   xmlns:rdf="http://www.w3.org/1999/02/22-rdf-syntax-ns#"
   xmlns:svg="http://www.w3.org/2000/svg"
   xmlns="http://www.w3.org/2000/svg"
   xmlns:sodipodi="http://sodipodi.sourceforge.net/DTD/sodipodi-0.dtd"
   xmlns:inkscape="http://www.inkscape.org/namespaces/inkscape"
   viewBox="0 0 16 16"
   fill-rule="evenodd"
   clip-rule="evenodd"
   stroke-linejoin="round"
   stroke-miterlimit="1.414"
   version="1.1"
   id="svg3798"
   sodipodi:docname="twitter.svg"
   inkscape:version="0.92.3 (2405546, 2018-03-11)">
  <metadata
     id="metadata3804">
    <rdf:RDF>
      <cc:Work
         rdf:about="">
        <dc:format>image/svg+xml</dc:format>
        <dc:type
           rdf:resource="http://purl.org/dc/dcmitype/StillImage" />
      </cc:Work>
    </rdf:RDF>
  </metadata>
  <defs
     id="defs3802" />
  <sodipodi:namedview
     pagecolor="#ffffff"
     bordercolor="#666666"
     borderopacity="1"
     objecttolerance="10"
     gridtolerance="10"
     guidetolerance="10"
     inkscape:pageopacity="0"
     inkscape:pageshadow="2"
     inkscape:window-width="3840"
     inkscape:window-height="2041"
     id="namedview3800"
     showgrid="false"
     inkscape:zoom="110.25"
     inkscape:cx="5.8730159"
     inkscape:cy="6.185941"
     inkscape:window-x="0"
     inkscape:window-y="0"
     inkscape:window-maximized="1"
     inkscape:current-layer="svg3798" />
  <path
     d="M16 3.038c-.59.26-1.22.437-1.885.517.677-.407 1.198-1.05 1.443-1.816-.634.37-1.337.64-2.085.79-.598-.64-1.45-1.04-2.396-1.04-1.812 0-3.282 1.47-3.282 3.28 0 .26.03.51.085.75-2.728-.13-5.147-1.44-6.766-3.42C.83 2.58.67 3.14.67 3.75c0 1.14.58 2.143 1.46 2.732-.538-.017-1.045-.165-1.487-.41v.04c0 1.59 1.13 2.918 2.633 3.22-.276.074-.566.114-.865.114-.21 0-.41-.02-.61-.058.42 1.304 1.63 2.253 3.07 2.28-1.12.88-2.54 1.404-4.07 1.404-.26 0-.52-.015-.78-.045 1.46.93 3.18 1.474 5.04 1.474 6.04 0 9.34-5 9.34-9.33 0-.14 0-.28-.01-.42.64-.46 1.2-1.04 1.64-1.7z"
     fill-rule="nonzero"
     id="path3796" />
  <path
     style="fill:#666660;stroke-width:0.00907029;fill-opacity:0"
     d="m 4.6185941,14.486995 c -0.027438,-0.0018 -0.1172336,-0.0076 -0.1995465,-0.01294 C 3.0934298,14.388195 1.756618,13.99602 0.56627273,13.343773 0.41367992,13.260163 0.04432863,13.040929 0.04893132,13.036702 c 0.0015232,-0.0014 0.0578714,0.003 0.12521834,0.0097 0.34668949,0.03474 0.78065596,0.03775 1.15192744,0.008 1.2481844,-0.10008 2.4085897,-0.536287 3.4214259,-1.286145 0.068406,-0.05064 0.124528,-0.09452 0.1247166,-0.0975 1.887e-4,-0.003 -0.050015,-0.0081 -0.1115645,-0.0114 -0.6889806,-0.03683 -1.34669,-0.289 -1.8905444,-0.724838 C 2.7184044,10.812953 2.496824,10.590848 2.37485,10.438095 2.1351116,10.137862 1.9501284,9.80491 1.8288046,9.4552659 l -0.021581,-0.062195 0.029268,0.00544 c 0.3481042,0.064681 0.7559491,0.066372 1.1267737,0.00467 0.1406972,-0.023411 0.3129252,-0.063743 0.3129252,-0.073282 0,-0.0041 -0.00799,-0.00745 -0.01775,-0.00745 -0.00976,0 -0.074048,-0.014405 -0.1428572,-0.03201 C 2.3294891,9.0893068 1.6444528,8.6014472 1.1927869,7.9210884 0.92515361,7.5179437 0.75070758,7.0618356 0.68283184,6.5877551 0.65552132,6.3970039 0.63542197,6.0843537 0.65046965,6.0843537 c 0.002566,0 0.0566472,0.025952 0.12018141,0.057671 0.28057184,0.1400744 0.59169034,0.2426056 0.89858804,0.2961356 0.1341001,0.02339 0.3614957,0.046953 0.4196545,0.043486 l 0.045862,-0.00273 -0.068242,-0.047358 C 1.5378734,6.0646962 1.1096255,5.5092226 0.87927821,4.89161 0.5604864,4.0368578 0.61798435,3.0530336 1.033314,2.2559662 1.093358,2.1407343 1.114864,2.1051515 1.120187,2.1122268 1.190509,2.2056918 1.4408052,2.487307 1.61109,2.6645547 c 1.5635928,1.6275277 3.6369854,2.6270611 5.8691823,2.8293935 0.2329611,0.021116 0.4036281,0.032162 0.4036281,0.026124 0,-0.00234 -0.00793,-0.042663 -0.017625,-0.089602 C 7.8161837,5.1879107 7.7987585,4.9794314 7.8047344,4.6941752 7.8098434,4.4503012 7.822158,4.3335387 7.8657021,4.1160998 8.0431365,3.230076 8.5922292,2.450452 9.3777705,1.9692037 9.7735057,1.7267635 10.229215,1.5711742 10.718367,1.511493 c 0.149599,-0.018253 0.601774,-0.015553 0.752835,0.00449 0.730618,0.096961 1.374216,0.4052869 1.884464,0.902784 l 0.116611,0.1136964 0.08336,-0.016806 c 0.377925,-0.076188 0.855196,-0.2270916 1.257966,-0.397744 0.150062,-0.063581 0.492621,-0.2317155 0.637189,-0.3127446 0.05363,-0.030058 0.0975,-0.053724 0.0975,-0.05259 0,0.00934 -0.05093,0.1472866 -0.08526,0.2309585 -0.227775,0.5550596 -0.617082,1.0476028 -1.114307,1.4097979 -0.05863,0.042707 -0.135124,0.095248 -0.16999,0.1167575 -0.03487,0.02151 -0.06343,0.041528 -0.06347,0.044485 -1.09e-4,0.00754 0.154355,-0.01394 0.362734,-0.050439 0.451386,-0.079063 0.906435,-0.2100592 1.34293,-0.3865936 0.176334,-0.071316 0.19902,-0.078635 0.19902,-0.064209 0,0.00919 -0.136102,0.2023707 -0.228844,0.3248217 -0.179869,0.2374908 -0.333358,0.4133839 -0.567876,0.6507709 -0.246967,0.2499893 -0.503299,0.4736958 -0.75934,0.662692 l -0.07307,0.053934 0.0039,0.2826799 c 0.02575,1.8585976 -0.536648,3.7545525 -1.589925,5.3599684 -1.522023,2.319884 -3.873194,3.755808 -6.6306703,4.049532 -0.3769518,0.04015 -0.5220756,0.04725 -1.0204082,0.04991 -0.2668934,0.0014 -0.5077098,0.0011 -0.5351474,-6.53e-4 z"
     id="path3808"
     inkscape:connector-curvature="0" />
  <path
     style="fill:#666666;fill-opacity:1;stroke-width:0.00907029"
     d="m 4.5387755,14.482988 c -1.16429,-0.0726 -2.226483,-0.32916 -3.2656082,-0.788777 C 1.0839683,13.610531 0.78532177,13.463619 0.61133787,13.36865 0.45877718,13.28537 0.04215096,13.040226 0.04664932,13.036379 c 0.0012817,-0.0011 0.05947313,0.0035 0.1293144,0.01012 0.94942668,0.09057 1.92730028,-0.02977 2.83055188,-0.348324 0.5177703,-0.182605 1.0573007,-0.455714 1.505049,-0.761854 0.1320417,-0.09028 0.3582767,-0.257729 0.3582767,-0.265178 0,-0.0032 -0.052041,-0.0088 -0.1156463,-0.01231 C 4.4564585,11.642334 4.1631229,11.585788 3.8800914,11.49033 3.0632362,11.214829 2.3811048,10.619813 1.9918339,9.843222 1.9217403,9.703386 1.8042483,9.4099618 1.8143174,9.3998927 c 0.00203,-0.00203 0.054641,0.00411 0.1169104,0.013649 0.4145646,0.063505 0.8468791,0.04189 1.2946225,-0.064729 0.045427,-0.010817 0.064587,-0.026364 0.032491,-0.026364 -0.00832,0 -0.07063,-0.014075 -0.1384661,-0.031278 C 2.2496575,9.0704874 1.501838,8.4947613 1.0615898,7.7065527 0.80270444,7.2430513 0.67332019,6.7693965 0.64796673,6.1923455 l -0.005019,-0.1142305 0.0944074,0.04843 C 1.0308015,6.2770818 1.3653294,6.3871018 1.6953566,6.4416142 c 0.1561024,0.025784 0.3485035,0.045091 0.402341,0.040374 l 0.035113,-0.00308 -0.075929,-0.053916 C 1.9067146,6.3183657 1.7968316,6.2237178 1.6359498,6.0624262 1.5459718,5.9722188 1.4404599,5.8583993 1.4014789,5.8094939 0.89059423,5.1685392 0.64109957,4.3991244 0.68031056,3.5854875 0.69886176,3.2005459 0.77497693,2.8532292 0.91633601,2.5084933 0.96651991,2.3861087 1.1053489,2.1096202 1.114621,2.1135937 c 0.00322,0.00138 0.067652,0.074482 0.1431901,0.1624536 1.418095,1.6515015 3.3697473,2.7616503 5.4895812,3.1226115 0.4164846,0.070918 1.1337868,0.1442732 1.1337868,0.1159468 0,-0.00526 -0.00631,-0.039424 -0.014012,-0.075917 C 7.7673505,4.9660082 7.780545,4.4250239 7.9034578,3.9507595 8.0511601,3.3808434 8.3429683,2.8731542 8.7651772,2.4515359 9.311161,1.9063157 10.00392,1.5821759 10.783673,1.5070869 c 0.280024,-0.026966 0.660683,-0.00647 0.943311,0.050779 0.61908,0.1254111 1.180045,0.4231662 1.6361,0.8684284 l 0.107755,0.1052048 0.06005,-0.010866 c 0.03303,-0.00598 0.141678,-0.030958 0.241452,-0.055516 0.589714,-0.145149 1.162827,-0.3710256 1.685404,-0.6642548 0.04398,-0.024678 0.08192,-0.042908 0.08432,-0.040512 0.0062,0.00621 -0.06142,0.1869469 -0.115151,0.3077259 -0.249449,0.5607536 -0.667715,1.0547758 -1.185359,1.400049 -0.05622,0.037498 -0.108259,0.070498 -0.115646,0.073333 -0.02412,0.00925 -0.01412,0.018298 0.01605,0.014517 0.364742,-0.045721 0.770543,-0.1328607 1.131519,-0.2429767 0.176036,-0.0537 0.491027,-0.16802 0.634958,-0.2304465 0.08831,-0.038304 0.108807,-0.043376 0.108807,-0.026929 0,0.015784 -0.205497,0.3002226 -0.323831,0.4482319 -0.354051,0.4428369 -0.740867,0.8168429 -1.229676,1.1889517 L 14.393215,4.7464853 14.389994,5.2 c -0.0045,0.6332384 -0.03937,1.0217258 -0.142067,1.5827664 -0.4351,2.376884 -1.735681,4.5144386 -3.600308,5.9172406 -1.2188,0.916933 -2.6438439,1.494417 -4.2086167,1.7055 -0.1977209,0.02667 -0.3721985,0.04494 -0.6213152,0.06504 -0.2106557,0.017 -1.0715052,0.02537 -1.2789116,0.01244 z"
     id="path4621"
     inkscape:connector-curvature="0" />
</svg>
